<svg width="186" height="185" viewBox="0 0 186 185" fill="none" xmlns="http://www.w3.org/2000/svg">
<g filter="url(#filter0_d_1_384)">
<rect x="8" y="8" width="165" height="165" rx="5" fill="white"/>
</g>
<g filter="url(#filter1_d_1_384)">
<rect x="9" y="8" width="165" height="165" rx="5" fill="white"/>
</g>
<path d="M92.1069 123.992L91.3869 138.68H83.6829L82.6749 123.704H84.8349L85.2309 129.968L89.6229 129.752L89.9109 123.992H92.1069ZM98.9109 119.312L99.3789 124.532L105.967 124.244L106.039 126.404L99.5949 126.692L100.531 136.736L98.3709 136.808L96.7509 119.492L98.9109 119.312ZM89.2989 136.52L89.5149 131.912L85.3749 132.128L85.6989 136.52H89.2989ZM97.1109 138.644L97.5429 145.34L95.3109 145.412L94.9149 138.824L97.1109 138.644ZM128.258 134.396L122.174 138.392L131.39 148.472L129.878 149.984L120.374 139.58L109.43 146.78L108.062 145.124L126.89 132.704L128.258 134.396ZM124.118 114.992L124.586 120.212L131.174 119.924L131.246 122.084L124.766 122.372L125.666 132.056L123.506 132.128L121.958 115.172L124.118 114.992ZM113.066 122.156L113.498 128.852L111.266 128.924L110.87 122.336L113.066 122.156ZM149.325 118.952L149.793 124.172L156.381 123.884L156.453 126.044L150.009 126.332L150.945 136.376L148.785 136.448L147.165 119.132L149.325 118.952ZM138.813 135.944L140.793 124.712L132.549 125.216L132.477 123.02L143.421 122.408L140.937 136.34L138.813 135.944ZM155.157 144.332H143.637L144.069 132.668L146.229 132.74L145.869 142.172H155.157V144.332Z" fill="black"/>
<path opacity="0.4" d="M103.729 51.4321L109.749 56.3977V60.6084V65.4239L108.694 75.0551L107.644 79.7206L104.934 86.4914L101.173 94.0172L98.1627 97.0275L98.913 98.8327V102.748L98.1627 107.564L92.7423 112.829L81.7561 117.124L66.4701 119L54.2179 115.84L46.2419 111.924L41.7312 103.498L42.4814 97.7824L43.2363 97.0275L41.7312 95.6724L37.3658 91.1569L32.8503 78.8203L30.895 66.1789V58.6531L34.8056 53.6875L36.9109 53.5374L44.2866 63.4686L50.4573 65.724L57.9831 66.3289L71.3747 67.9747L88.0768 65.2739L95.4525 60.6084L98.4628 57.9029L98.3128 55.4927L91.9921 51.4321L83.416 48.8719L74.3851 47.6669H66.4701H61.1434L59.3335 48.7219L56.1778 46.7666L60.6886 45.1114H74.8352L85.2212 45.8616L96.2028 47.5168L103.729 51.4321Z" fill="black"/>
<path opacity="0.4" d="M79.4492 65.7804L62.9394 51.2165L58.1051 47.1887L53.81 43.8314L42.4674 34.7723L35.087 28.9346L32.9395 26.9887H32.4706L31.7954 26.5854L30.8951 26.8527L26.2296 31.0165L23.0083 34.3034L22.0001 36.2494V37.1215L24.6166 39.8739L35.0214 51.0805L43.2083 59.2018L49.9838 65.0395L54.9494 66.8542L69.1101 68.3265H71.8625L75.487 67.9748L79.9838 67.1871L80.6168 66.479L79.4492 65.7804Z" fill="black"/>
<path opacity="0.8" d="M59.8493 47.4561H64.693L68.2191 47.1795L74.7415 47.4561L79.3507 48.1548L82.858 48.544L87.3923 50.0585L91.2747 51.0057L93.9756 52.3561L98.3128 55.493L99.0724 57.5655L98.2472 58.6533L93.8255 62.0669L90.562 63.9753L87.5236 65.8134L81.4138 66.5261H80.3307L74.854 62.1794L68.2191 56.2901L61.8797 50.7431L59.0335 48.5674L59.3711 47.8547L59.8493 47.4561Z" fill="black"/>
<path opacity="0.8" d="M40.6997 56.1773L49.6978 64.2751L50.7106 65.0629L51.8641 65.724L53.0785 66.1695L49.6602 66.0007L43.996 63.825L41.7125 60.9038L38.8241 56.6274L38.3786 54.4142L40.6997 56.1773Z" fill="black"/>
<path opacity="0.6" d="M89.6148 100.676L68.7349 104.952L59.5305 104.122L50.7668 100.399L44.8353 97.9138C44.8353 97.9138 54.9072 104.399 55.4605 104.947C56.0138 105.496 62.7752 107.226 62.7752 107.226L70.3244 106.396L89.6148 100.676Z" fill="black"/>
<path opacity="0.8" d="M72.8049 18.4455L72.2422 20.9822L71.431 22.0888H70.6902L69.9587 21.4651V20.4945L70.7136 19.1441L71.6795 18L72.8049 18.4455Z" fill="#E2C66A"/>
<path opacity="0.8" d="M65.1289 21.7746L62.9861 23.2422L61.6356 23.4954L61.0964 22.989L60.9886 22.0325L61.6497 21.3245L63.122 20.8556L64.6084 20.6821L65.1289 21.7746Z" fill="#E2C66A"/>
<path opacity="0.8" d="M72.2938 26.0133L72.0265 28.5969L71.3513 29.7926L70.6151 29.877L69.8133 29.3425L69.7008 28.3812L70.2963 26.9558L71.1215 25.7038L72.2938 26.0133Z" fill="#E2C66A"/>
<path opacity="0.8" d="M77.6721 45.0882L78.4973 47.5499L78.3754 48.9144L77.7424 49.2988L76.7905 49.1394L76.2888 48.3095L76.2419 46.7668L76.4811 45.2898L77.6721 45.0882Z" fill="#E2C66A"/>
<path opacity="0.8" d="M77.6439 40.5864L79.7774 42.0634L80.4995 43.231L80.2182 43.9156L79.3648 44.361L78.4645 43.9953L77.5033 42.7855L76.8093 41.4586L77.6439 40.5864Z" fill="#E2C66A"/>
<path opacity="0.8" d="M72.8188 51.9012L71.7357 54.2644L70.7135 55.1788L69.9867 55.0241L69.4006 54.2598L69.6069 53.3079L70.6244 52.1497L71.806 51.2354L72.8188 51.9012Z" fill="#E2C66A"/>
<path opacity="0.8" d="M81.1417 51.8357L82.2483 54.1849L82.2858 55.554L81.6997 56.0089L80.7385 55.962L80.143 55.1977L79.9132 53.6691L79.9789 52.1733L81.1417 51.8357Z" fill="#E2C66A"/>
<path opacity="0.8" d="M75.4823 35.0537L76.0262 37.5904L75.7542 38.9361L75.079 39.2456L74.1553 38.983L73.7474 38.1015L73.8693 36.5635L74.2725 35.1193L75.4823 35.0537Z" fill="#E2C66A"/>
<path opacity="0.8" d="M79.2428 27.2044L81.2262 28.8831L81.8311 30.1162L81.4888 30.768L80.5932 31.1291L79.7351 30.6789L78.8911 29.3848L78.3284 27.9968L79.2428 27.2044Z" fill="#E2C66A"/>
<defs>
<filter id="filter0_d_1_384" x="0" y="0" width="185" height="185" filterUnits="userSpaceOnUse" color-interpolation-filters="sRGB">
<feFlood flood-opacity="0" result="BackgroundImageFix"/>
<feColorMatrix in="SourceAlpha" type="matrix" values="0 0 0 0 0 0 0 0 0 0 0 0 0 0 0 0 0 0 127 0" result="hardAlpha"/>
<feOffset dx="2" dy="2"/>
<feGaussianBlur stdDeviation="5"/>
<feComposite in2="hardAlpha" operator="out"/>
<feColorMatrix type="matrix" values="0 0 0 0 0 0 0 0 0 0 0 0 0 0 0 0 0 0 0.15 0"/>
<feBlend mode="normal" in2="BackgroundImageFix" result="effect1_dropShadow_1_384"/>
<feBlend mode="normal" in="SourceGraphic" in2="effect1_dropShadow_1_384" result="shape"/>
</filter>
<filter id="filter1_d_1_384" x="1" y="0" width="185" height="185" filterUnits="userSpaceOnUse" color-interpolation-filters="sRGB">
<feFlood flood-opacity="0" result="BackgroundImageFix"/>
<feColorMatrix in="SourceAlpha" type="matrix" values="0 0 0 0 0 0 0 0 0 0 0 0 0 0 0 0 0 0 127 0" result="hardAlpha"/>
<feOffset dx="2" dy="2"/>
<feGaussianBlur stdDeviation="5"/>
<feComposite in2="hardAlpha" operator="out"/>
<feColorMatrix type="matrix" values="0 0 0 0 0 0 0 0 0 0 0 0 0 0 0 0 0 0 0.15 0"/>
<feBlend mode="normal" in2="BackgroundImageFix" result="effect1_dropShadow_1_384"/>
<feBlend mode="normal" in="SourceGraphic" in2="effect1_dropShadow_1_384" result="shape"/>
</filter>
</defs>
</svg>
