<svg width="185" height="185" viewBox="0 0 185 185" fill="none" xmlns="http://www.w3.org/2000/svg">
<g filter="url(#filter0_d_2_389)">
<rect x="8" y="8" width="165" height="165" rx="5" fill="white"/>
</g>
<path d="M93.1069 128.992L92.3869 143.68H84.6829L83.6749 128.704H85.8349L86.2309 134.968L90.6229 134.752L90.9109 128.992H93.1069ZM99.9109 124.312L100.379 129.532L106.967 129.244L107.039 131.404L100.595 131.692L101.531 141.736L99.3709 141.808L97.7509 124.492L99.9109 124.312ZM90.2989 141.52L90.5149 136.912L86.3749 137.128L86.6989 141.52H90.2989ZM98.1109 143.644L98.5429 150.34L96.3109 150.412L95.9149 143.824L98.1109 143.644ZM129.258 139.396L123.174 143.392L132.39 153.472L130.878 154.984L121.374 144.58L110.43 151.78L109.062 150.124L127.89 137.704L129.258 139.396ZM125.118 119.992L125.586 125.212L132.174 124.924L132.246 127.084L125.766 127.372L126.666 137.056L124.506 137.128L122.958 120.172L125.118 119.992ZM114.066 127.156L114.498 133.852L112.266 133.924L111.87 127.336L114.066 127.156ZM150.325 123.952L150.793 129.172L157.381 128.884L157.453 131.044L151.009 131.332L151.945 141.376L149.785 141.448L148.165 124.132L150.325 123.952ZM139.813 140.944L141.793 129.712L133.549 130.216L133.477 128.02L144.421 127.408L141.937 141.34L139.813 140.944ZM156.157 149.332H144.637L145.069 137.668L147.229 137.74L146.869 147.172H156.157V149.332Z" fill="black"/>
<path opacity="0.4" d="M104.728 56.4321L110.749 61.3977V65.6084V70.4239L109.694 80.055L108.644 84.7205L105.934 91.4914L102.173 99.0172L99.1627 102.027L99.9129 103.833V107.748L99.1627 112.564L93.7423 117.829L82.7561 122.124L67.4701 124L55.2178 120.84L47.2419 116.924L42.7311 108.498L43.4814 102.782L44.2363 102.027L42.7311 100.672L38.3657 96.1569L33.8503 83.8203L31.895 71.1788V63.6531L35.8056 58.6875L37.9109 58.5374L45.2866 68.4686L51.4573 70.724L58.9831 71.3289L72.3747 72.9747L89.0768 70.2739L96.4525 65.6084L99.4628 62.9028L99.3128 60.4927L92.992 56.4321L84.4159 53.8719L75.385 52.6669H67.4701H62.1434L60.3335 53.7219L57.1778 51.7666L61.6886 50.1114H75.8352L86.2212 50.8616L97.2027 52.5168L104.728 56.4321Z" fill="black"/>
<path opacity="0.4" d="M80.4492 70.7804L63.9394 56.2165L59.1051 52.1887L54.81 48.8314L43.4674 39.7723L36.087 33.9346L33.9394 31.9887H33.4705L32.7953 31.5854L31.8951 31.8527L27.2295 36.0165L24.0082 39.3034L23.0001 41.2493V42.1215L25.6165 44.8739L36.0213 56.0805L44.2083 64.2018L50.9838 70.0395L55.9494 71.8541L70.11 73.3265H72.8625L76.487 72.9748L80.9837 72.1871L81.6167 71.479L80.4492 70.7804Z" fill="black"/>
<path opacity="0.8" d="M60.8493 52.4561H65.693L69.2191 52.1795L75.7414 52.4561L80.3506 53.1548L83.858 53.544L88.3922 55.0585L92.2747 56.0057L94.9755 57.3561L99.3128 60.493L100.072 62.5655L99.2471 63.6533L94.8254 67.0669L91.5619 68.9753L88.5235 70.8134L82.4138 71.5261H81.3306L75.8539 67.1794L69.2191 61.2901L62.8796 55.7431L60.0334 53.5674L60.371 52.8547L60.8493 52.4561Z" fill="black"/>
<path opacity="0.8" d="M41.6996 61.1773L50.6977 69.2751L51.7105 70.0629L52.864 70.724L54.0785 71.1695L50.6602 71.0007L44.996 68.825L42.7124 65.9038L39.824 61.6274L39.3786 59.4142L41.6996 61.1773Z" fill="black"/>
<path opacity="0.6" d="M90.6148 105.676L69.7349 109.952L60.5304 109.122L51.7668 105.399L45.8353 102.914C45.8353 102.914 55.9071 109.399 56.4604 109.947C57.0137 110.496 63.7752 112.226 63.7752 112.226L71.3244 111.396L90.6148 105.676Z" fill="black"/>
<path opacity="0.8" d="M73.8048 23.4455L73.2422 25.9822L72.431 27.0888H71.6901L70.9586 26.4651V25.4945L71.7136 24.1441L72.6795 23L73.8048 23.4455Z" fill="#E2C66A"/>
<path opacity="0.8" d="M66.1289 26.7746L63.9861 28.2422L62.6356 28.4954L62.0964 27.989L61.9886 27.0325L62.6497 26.3244L64.122 25.8555L65.6084 25.6821L66.1289 26.7746Z" fill="#E2C66A"/>
<path opacity="0.8" d="M73.2937 31.0133L73.0265 33.5969L72.3513 34.7926L71.6151 34.877L70.8133 34.3425L70.7007 33.3812L71.2962 31.9558L72.1215 30.7038L73.2937 31.0133Z" fill="#E2C66A"/>
<path opacity="0.8" d="M78.672 50.0882L79.4973 52.5499L79.3753 53.9143L78.7423 54.2988L77.7905 54.1394L77.2888 53.3095L77.2419 51.7668L77.481 50.2898L78.672 50.0882Z" fill="#E2C66A"/>
<path opacity="0.8" d="M78.6439 45.5864L80.7774 47.0634L81.4995 48.231L81.2181 48.9156L80.3647 49.361L79.4644 48.9953L78.5032 47.7855L77.8092 46.4586L78.6439 45.5864Z" fill="#E2C66A"/>
<path opacity="0.8" d="M73.8188 56.9012L72.7357 59.2644L71.7135 60.1788L70.9867 60.0241L70.4006 59.2598L70.6069 58.3079L71.6244 57.1497L72.806 56.2354L73.8188 56.9012Z" fill="#E2C66A"/>
<path opacity="0.8" d="M82.1417 56.8357L83.2483 59.1849L83.2858 60.5541L82.6997 61.0089L81.7385 60.962L81.143 60.1977L80.9132 58.6691L80.9789 57.1733L82.1417 56.8357Z" fill="#E2C66A"/>
<path opacity="0.8" d="M76.4822 40.0537L77.0261 42.5904L76.7542 43.9361L76.079 44.2456L75.1552 43.983L74.7473 43.1015L74.8692 41.5635L75.2725 40.1193L76.4822 40.0537Z" fill="#E2C66A"/>
<path opacity="0.8" d="M80.2427 32.2044L82.2261 33.8831L82.831 35.1163L82.4887 35.768L81.5931 36.1291L80.7351 35.6789L79.8911 34.3848L79.3284 32.9969L80.2427 32.2044Z" fill="#E2C66A"/>
<defs>
<filter id="filter0_d_2_389" x="0" y="0" width="185" height="185" filterUnits="userSpaceOnUse" color-interpolation-filters="sRGB">
<feFlood flood-opacity="0" result="BackgroundImageFix"/>
<feColorMatrix in="SourceAlpha" type="matrix" values="0 0 0 0 0 0 0 0 0 0 0 0 0 0 0 0 0 0 127 0" result="hardAlpha"/>
<feOffset dx="2" dy="2"/>
<feGaussianBlur stdDeviation="5"/>
<feComposite in2="hardAlpha" operator="out"/>
<feColorMatrix type="matrix" values="0 0 0 0 0 0 0 0 0 0 0 0 0 0 0 0 0 0 0.15 0"/>
<feBlend mode="normal" in2="BackgroundImageFix" result="effect1_dropShadow_2_389"/>
<feBlend mode="normal" in="SourceGraphic" in2="effect1_dropShadow_2_389" result="shape"/>
</filter>
</defs>
</svg>
