<svg width="185" height="185" viewBox="0 0 185 185" fill="none" xmlns="http://www.w3.org/2000/svg">
<g filter="url(#filter0_d_1_385)">
<rect x="8" y="8" width="165" height="165" rx="5" fill="white"/>
</g>
<g clip-path="url(#clip0_1_385)">
<path d="M42.0738 101.971L47.2396 90.3997L52.4054 80.5811L54.7837 77.7935L56.643 74.0719L58.71 70.2494L61.8088 65.911L65.4267 60.846L70.2722 53.9246L72.5556 51.0303L75.1385 48.1954L77.6177 45.3456L78.5488 43.7976L79.48 44.2098L80.6098 44.5212L81.2355 48.1954L83.4062 54.8528L84.542 61.5696L85.2656 63.2243L86.2975 68.0787L88.056 75.8304L88.8804 78.2057L89.604 81.616L90.123 87.197L91.1549 92.9826L93.1181 104.969L93.9454 108.068V110.962V112.821L92.9105 114.269L91.3625 116.024L89.2956 116.647L86.5051 115.301L80.6098 114.372L72.7632 112.305L65.9427 109.619L60.9815 109.207L50.7536 107.967H48.8913L46.2046 107.759L44.0369 107.243L43.3133 103.522L42.0738 103.006V101.971Z" fill="#0BE600"/>
<path d="M70.6963 29.6405L72.6594 30.7763L74.8301 33.463L76.6895 36.7873L78.1366 39.7675H79.3762L80.0997 40.5623H81.0279L85.1618 37.7006L90.6389 35.1029L95.8048 33.2584L98.8028 32.947L93.9454 32.7394L90.123 32.8432L84.7496 32.0159L80.6098 31.3961L75.1385 30.1565L70.6963 29.6405Z" fill="#0BE600"/>
<path opacity="0.8" d="M81.8553 43.7976L89.8116 49.0672L93.9454 51.1341L99.731 54.3368L105.724 59.0904L109.858 62.133L114.819 67.1505L119.985 73.3483L123.395 77.1737L127.63 82.2358L129.904 85.0263L130.42 87.9205L128.045 89.7799L125.358 93.0864L119.674 96.289L115.024 98.872L110.89 101.146L107.171 104.453L103.038 108.275L98.3877 112.202L93.9454 112.821L93.3257 109.826L89.3994 89.6761L88.3645 81.8236L86.9173 75.3114L84.7496 64.36L83.1986 58.4707L81.8553 52.4775L80.6098 46.7927V44.5212L81.3393 43.7976H81.8553Z" fill="#FF0000"/>
<path opacity="0.8" d="M69.4271 29L63.6296 32.345L59.8368 34.1302L56.9366 35.1029L54.3715 35.5803L51.8064 36.7873L48.3516 38.1455L43.4438 40.0404L40.4339 41.1554L54.0394 37.923L62.9594 38.4776L71.9922 39.9277L76.9 41.1554H77.7896L78.5725 40.5623V38.0328L74.3349 31.4524L71.6897 29.7562L69.4271 29Z" fill="#FF0000"/>
<path opacity="0.8" d="M82.9317 42.1547V43.7976H81.3393L85.7282 46.3627L91.8637 50.6122L100.265 56.2495L108.094 61.5755L116.029 70.3473L124.905 80.2222L130.21 86.7432L130.42 86.3221L128.558 79.3266L129.083 72.3311L127.932 65.4394L127.411 58.3402L128.351 54.1618L127.411 52.9104L118.642 48.1953L110.392 44.8711L101.516 43.7976L89.1977 42.5729L82.9317 42.1547Z" fill="#006EFF"/>
<path opacity="0.8" d="M39.0787 41.7366L36.6767 47.6883L33.3376 54.58L29.5774 59.6954L27.4897 63.9775L23 67.2128V68.1528L38.0348 57.7115L47.5361 52.8066L64.2435 47.3769L76.2506 43.0948L77.8164 42.1547L77.1906 41.7366L76.9 41.1554L62.4672 37.8756L57.1412 36.7873H54.5316L51.1688 37.0393L44.1941 39.6489L39.0787 41.7366Z" fill="#006EFF"/>
<path opacity="0.8" d="M23.5279 69.2975L23 70.3858L23.5279 71.5631L24.5242 75.5487L27.5134 79.7151L33.13 88.3209L34.761 93.4837L37.2964 98.8275L39.3811 102.359H40.9202H42.0738L47.4412 92.3954L51.2459 84.0625L56.4088 75.9105L58.9472 72.3786L62.6599 65.6737L67.0992 60.0572L70.6963 54.7134L75.5211 48.1954L77.6177 45.3456L79.48 44.2098L78.1485 43.7976L77.8163 42.6678L70.9928 43.7976L62.2981 46.9232L53.5115 49.1888L46.4448 52.4715L41.3739 55.44L33.3109 59.6954L27.4185 65.0836L24.3285 67.2306L23 68.1528L23.5279 69.2975Z" fill="#FFE600"/>
<path opacity="0.8" d="M81.0279 40.5623L82.4068 41.5794L83.5901 42.1992H87.2079L93.4858 42.9999L102.788 45.0223L110.848 46.0187L119.816 50.0043L125.068 51.6501L128.351 54.1618L118.728 46.6533L112.299 42.6678L106.774 38.5903L103.42 35.5121L101.7 34.2429L97.7086 32.8996L93.3671 33.4274L89.0198 35.0792L84.2187 36.7873L81.0279 40.5623Z" fill="#FFE600"/>
<path opacity="0.8" d="M79.5986 39.6252H78.0654L77.1076 40.5623L76.1527 41.1554L76.3959 42.2377L77.4101 42.9672L77.8757 43.6167L78.3827 44.0823H78.5043L79.2338 44.361L80.0256 44.874H80.1679H80.4912L81.3393 44.2424L81.7426 44.2009L81.9265 44.2424L82.4365 43.9103L82.9021 43.9399L83.5308 43.5307L83.5515 41.4697L82.4988 40.5623L80.936 39.9692L80.4497 40.0492L79.5986 39.6252Z" fill="#006EFF"/>
</g>
<path d="M127.834 122.048L129.022 139.076L126.862 139.148L125.674 122.228L127.834 122.048ZM117.214 124.568L114.694 139.58L112.534 139.22L114.586 126.872L106.342 127.376L106.27 125.18L117.214 124.568ZM148.325 118.448L148.901 127.412L155.381 127.124L155.453 129.284L149.045 129.572L149.945 142.676L147.785 142.748L147.281 135.548L133.529 138.068L132.233 123.848L143.897 123.668V125.792L134.609 126.008L134.861 128.888L144.005 128.456L144.077 130.616L135.077 131.048L135.473 135.476L147.137 133.46L146.165 118.628L148.325 118.448Z" fill="black"/>
<defs>
<filter id="filter0_d_1_385" x="0" y="0" width="185" height="185" filterUnits="userSpaceOnUse" color-interpolation-filters="sRGB">
<feFlood flood-opacity="0" result="BackgroundImageFix"/>
<feColorMatrix in="SourceAlpha" type="matrix" values="0 0 0 0 0 0 0 0 0 0 0 0 0 0 0 0 0 0 127 0" result="hardAlpha"/>
<feOffset dx="2" dy="2"/>
<feGaussianBlur stdDeviation="5"/>
<feComposite in2="hardAlpha" operator="out"/>
<feColorMatrix type="matrix" values="0 0 0 0 0 0 0 0 0 0 0 0 0 0 0 0 0 0 0.15 0"/>
<feBlend mode="normal" in2="BackgroundImageFix" result="effect1_dropShadow_1_385"/>
<feBlend mode="normal" in="SourceGraphic" in2="effect1_dropShadow_1_385" result="shape"/>
</filter>
<clipPath id="clip0_1_385">
<rect width="107.42" height="87.6439" fill="white" transform="translate(23 29)"/>
</clipPath>
</defs>
</svg>
