<svg width="185" height="185" viewBox="0 0 185 185" fill="none" xmlns="http://www.w3.org/2000/svg">
<g filter="url(#filter0_d_1_381)">
<rect x="8" y="8" width="165" height="165" rx="5" fill="white"/>
</g>
<path d="M100.834 122.048L102.022 139.076L99.8619 139.148L99.2499 130.508L89.5659 131.192L89.3859 129.032L99.1059 128.348L98.6739 122.228L100.834 122.048ZM85.0659 128.276L85.4979 134.972L83.2659 135.044L82.8699 128.456L85.0659 128.276ZM129.353 123.992L128.165 140.948L126.005 140.876L126.545 132.956L120.749 133.172L121.289 140.876L119.129 140.948L117.941 124.028L120.101 123.848L120.605 131.012L126.689 130.796L127.193 123.812L129.353 123.992ZM114.053 130.364L113.693 138.644L116.825 138.608V140.768L104.225 140.948V138.788L107.033 138.752L106.457 130.724L108.653 130.544L109.229 138.716L111.533 138.68L111.893 130.364H114.053ZM103.865 127.376L116.465 126.728V128.924L103.865 129.572V127.376ZM155.021 136.304L150.485 136.484L150.593 146.528H148.433L148.325 136.556L138.281 136.952L138.389 146.888H136.229L136.121 137.024L131.729 137.168V135.008L155.021 134.144V136.304ZM149.945 131.624L137.165 132.092L137.309 124.748L146.381 123.848L146.525 119.744L137.633 119.492V117.332L148.793 117.62L148.505 125.828L139.541 126.728L139.469 129.86L149.837 129.464L149.945 131.624Z" fill="black"/>
<path opacity="0.4" d="M43.2764 34.8761L63.8454 53.6379L74.1374 66.3985L83.5634 82.0969L90.2332 96.0937L93.6254 100.6L102.098 109.996L103.444 111.488L100.463 109.985L98.2243 109.299L95.9915 108.474L94.9699 108.988L96.057 112.744L96.3352 115.598L96.392 118.659L95.517 117.693L93.2989 115.228L91.0556 110.495L90.064 106.249L87.966 102.868L85.5065 100.894L81.9831 97.5858L74.4631 91.7918L69.627 87.6318L63.7352 84.6984L56.5349 78.2164L46.3453 66.3114L35.7412 54.1051L30.6027 46.3064L29.2842 41.5444L27.2281 37.3166L27.1655 30.2038L28.894 25.6722L30.3699 25.9616L34.5235 28.1646L39.3751 31.9007L43.2764 34.8761Z" fill="#006EFF"/>
<path opacity="0.8" d="M44.6119 35.7206L46.6402 41.6736L45.6362 44.701L41.5612 45.2644L34.3429 43.5636L40.9558 46.5891L47.2612 46.2753L48.9244 48.4886L55.5331 55.5034L60.2874 60.5427L65.7954 66.3906L71.1008 72.0157L77.5069 78.8076L81.1354 83.3899L84.1987 87.8149L87.7438 92.8933L89.8759 97.642L92.217 100.128L93.0195 99.371L90.4371 94.7767L87.6408 89.2312L84.3499 82.6932L79.0295 74.0744L73.1253 65.9657L66.8583 57.6855L58.1698 48.4648L51.9443 42.4731L47.8715 38.4421L44.6119 35.7206Z" fill="#006EFF"/>
<path opacity="0.8" d="M37.3769 30.36L37.6496 31.8729L36.4869 33.2702L35.1747 34.4528L32.6832 33.3882L32.1654 32.8121L31.9463 31.5294L32.3372 29.4405L33.6372 28.5192L35.1605 28.6571L36.5101 29.7341L37.3769 30.36Z" fill="white"/>
<path d="M35.8834 31.3384L35.416 32.306L34.3457 32.4318L33.674 32.021L33.4991 31.1128L33.9304 30.379L34.9147 29.9375L35.8989 30.5359L35.8834 31.3384Z" fill="black"/>
<path opacity="0.8" d="M123.872 110.748L128.256 111.861L129.265 111.59L130.127 110.097L131.695 108.534L133.018 107.879L141.324 107.456L142.202 106.918L144.607 106.695L145.803 105.775L147.405 104.802L148.561 103.952L149.744 103.216L150.935 101.154L151.716 99.8016L152.728 98.8681L153.835 96.9502L153.856 94.5919L153.911 93.9641L154.331 93.1564L154.552 92.3227L155.349 90.6362L155.098 88.8747L154.911 87.4518L154.717 87.0327L154.61 86.2277L154.57 82.6599L152.641 77.4298L150.784 75.8745L150.148 74.5456L149.492 72.5037L148.194 70.6571L145.643 69.538L144.539 68.1105L143.718 66.8048L141.801 65.8751L140.734 65.6074L139.828 65.6558L138.343 64.9697L137.149 63.932L135.626 62.9231L133.625 62.5993L132.518 62.9221L131.485 63.1988L130.004 62.9566L128.317 62.4662L125.834 61.9945L124.424 62.8436L123.891 62.9305L123.011 63.1661L121.826 62.7884L120.438 62.9955L119.371 63.4759L118.647 63.973L117.914 64.5582L117.447 64.9899L116.808 65.1875L115.791 65.1305L114.171 65.8117L113.082 66.7163L112.129 67.3045L111.485 68.4194L111.031 69.2068L110.385 69.7126L109.659 70.2135L108.571 70.5051L107.541 71.0019L106.972 71.9881L106.269 73.2044L105.72 74.1555L105.227 75.0093L104.351 75.7714L103.745 76.82L103.731 77.6016L103.555 78.8151L103.48 79.5568L103.075 80.3311L103.067 81.3349L103.163 82.2219L103.349 83.4209L103.575 84.1645L103.779 85.8627L104.104 86.9652L104.971 88.9572L105.575 89.8728L106.703 92.3221L107.634 94.6528L107.995 95.3864L107.453 96.5598L107.009 97.4003L107.276 98.9107L108.525 100.464L109.553 101.494L109.646 101.854L113.117 103.728L115.438 105.245L116.247 106.346L118.664 107.544L120.818 108.746L122.664 110.248L123.872 110.748Z" fill="#CEBAA3"/>
<path d="M109.947 70.3638L109.944 81.1366L110.186 85.5333L111.246 93.8431L111.606 81.3271L112.193 72.3156L112.001 67.5266L111.485 68.4193L111.049 69.5809L110.075 70.1416L109.947 70.3638Z" fill="#CEBAA3"/>
<path d="M153.955 93.6723L146.457 97.7475L143.007 99.4099L132.114 103.469L142.162 98.4799L151.112 92.4307L155.642 90.5348L155.054 91.4009L154.176 92.3082L154.099 93.4591L153.955 93.6723Z" fill="#CEBAA3"/>
<path d="M106.671 73.2284L105.94 74.4953L105.507 75.0199L107.656 85.7465L109.289 90.8942L108.202 84.9181L107.035 74.9926L106.914 73.6806L106.671 73.2284Z" fill="#CEBAA3"/>
<path d="M103.546 80.2807L106.013 87.4225L107.26 90.9701L106.194 86.415L104.551 81.0953L103.862 78.2749L103.939 79.3645L103.651 80.0349L103.546 80.2807Z" fill="#CEBAA3"/>
<path d="M115.667 65.813L115.653 65.9816L114.84 80.237L114.081 89.1857L113.959 93.7623L114.991 87.3568L116.089 80.5217L118.275 69.1015L119.306 64.0471L118.39 64.7605L117.396 65.6365L116.378 65.4544L115.899 65.4115L115.667 65.813Z" fill="#CEBAA3"/>
<path d="M154.347 85.6031L154.204 85.6974L143.032 93.5976L138.809 95.9416L133.435 99.0654L139.006 95.0419L142.085 92.6716L150.195 84.9889L154.053 81.5663L153.893 82.7163L153.631 84.0154L154.304 84.804L154.579 85.2016L154.347 85.6031Z" fill="#CEBAA3"/>
<path d="M123.011 63.166L121.134 75.0968L118.925 86.9714L121.562 74.7151L124.395 66.2519L125.305 63.1545L125.193 62.6375L123.502 63.0906L123.011 63.166Z" fill="#CEBAA3"/>
<path d="M150.807 76.4387L142.217 84.9254L137.395 89.964L142.275 84.3562L147.495 77.1152L149.475 74.568L149.96 74.3591L150.579 75.9955L150.807 76.4387Z" fill="#CEBAA3"/>
<path d="M130.319 63.5544L128.881 68.3484L124.015 81.9632L129.856 67.4712L131.782 63.6402L131.196 63.5929L130.439 63.6242L130.319 63.5544Z" fill="#CEBAA3"/>
<path d="M139.236 65.818L136.75 70.168L131.85 80.0419L136.714 68.853L138.16 64.8177L138.599 65.2111L139.101 65.7817L139.236 65.818Z" fill="#CEBAA3"/>
<path d="M145.699 70.4954L141.309 76.3968L137.919 80.9264L141.811 74.5555L144.99 69.021L145.287 69.5974L145.458 70.1018L145.676 70.139L145.699 70.4954Z" fill="#CEBAA3"/>
<path opacity="0.4" d="M105.049 40.7329L78.7835 67.1205L65.8585 84.8294L54.2796 106.407L46.2727 125.533L42.032 131.771L31.321 144.869L29.619 146.949L33.5032 144.748L36.4498 143.687L39.3792 142.442L40.777 143.063L39.567 148.15L39.3794 151.98L39.5008 156.072L40.6073 154.725L43.4113 151.29L46.1026 144.823L47.1535 139.087L49.7379 134.435L52.8961 131.641L57.3891 126.994L67.0606 118.77L73.2523 112.901L80.9333 108.603L90.1334 99.4805L102.977 82.9212L116.354 65.9326L122.715 55.184L124.17 48.7382L126.644 42.9582L126.269 33.4531L123.668 27.5114L121.715 27.9931L116.309 31.2036L110.069 36.507L105.049 40.7329Z" fill="#006EFF"/>
<path opacity="0.8" d="M103.32 41.9468L100.994 50.0295L102.531 54.0086L108.01 54.4985L117.543 51.7613L108.904 56.229L100.462 56.2164L98.3827 59.2801L90.0072 69.0763L83.9814 76.1142L77.001 84.2808L70.2769 92.1366L62.1577 101.622L57.6063 107.977L53.7998 114.085L49.3917 121.097L46.8498 127.578L43.883 131.049L42.7623 130.09L45.9156 123.787L49.2932 116.199L53.2675 107.254L59.8187 95.3978L67.1825 84.1858L75.02 72.7213L86.0314 59.8443L93.9609 51.4395L99.1413 45.7924L103.32 41.9468Z" fill="#006EFF"/>
<path opacity="0.8" d="M112.638 34.3202L112.372 36.3586L114.015 38.15L115.844 39.6452L119.103 38.0625L119.758 37.2595L119.968 35.532L119.311 32.7669L117.515 31.6201L115.489 31.9026L113.756 33.4282L112.638 34.3202Z" fill="white"/>
<path d="M114.696 35.5307L115.383 36.7929L116.821 36.892L117.692 36.3L117.867 35.0756L117.243 34.1232L115.9 33.5969L114.624 34.4596L114.696 35.5307Z" fill="black"/>
<defs>
<filter id="filter0_d_1_381" x="0" y="0" width="185" height="185" filterUnits="userSpaceOnUse" color-interpolation-filters="sRGB">
<feFlood flood-opacity="0" result="BackgroundImageFix"/>
<feColorMatrix in="SourceAlpha" type="matrix" values="0 0 0 0 0 0 0 0 0 0 0 0 0 0 0 0 0 0 127 0" result="hardAlpha"/>
<feOffset dx="2" dy="2"/>
<feGaussianBlur stdDeviation="5"/>
<feComposite in2="hardAlpha" operator="out"/>
<feColorMatrix type="matrix" values="0 0 0 0 0 0 0 0 0 0 0 0 0 0 0 0 0 0 0.15 0"/>
<feBlend mode="normal" in2="BackgroundImageFix" result="effect1_dropShadow_1_381"/>
<feBlend mode="normal" in="SourceGraphic" in2="effect1_dropShadow_1_381" result="shape"/>
</filter>
</defs>
</svg>
