<svg width="185" height="185" viewBox="0 0 185 185" fill="none" xmlns="http://www.w3.org/2000/svg">
<g filter="url(#filter0_d_1_388)">
<rect x="8" y="8" width="165" height="165" rx="5" fill="white"/>
</g>
<path d="M126.414 122.47L127.242 135.034L133.47 134.746L133.542 136.906L127.386 137.194L128.034 146.698L125.874 146.77L124.254 122.65L126.414 122.47ZM114.57 131.758L114.642 143.134L124.542 142.738V144.898L108.018 145.51V143.35L112.482 143.206L112.41 131.758H114.57ZM108.522 126.466H120.834L120.402 139.606L118.242 139.534L118.602 128.626H108.522V126.466ZM155.754 116.494L157.374 133.918L155.214 133.99L153.594 116.674L155.754 116.494ZM156.618 137.302L156.006 144.97L140.886 144.682L140.814 148.894L158.274 149.29V151.45L138.654 151.054L138.726 142.522L153.954 142.81L154.314 139.426L140.274 138.814V136.654L156.618 137.302ZM140.562 123.298L140.994 129.994L138.762 130.066L138.366 123.478L140.562 123.298Z" fill="black"/>
<path opacity="0.8" d="M58.7049 40.8857L62.0936 42.2763L65.4823 41.5864L67.6372 41.3654L69.8999 40.9773L74.6516 40.7887L77.8248 41.1282L81.6822 41.7103L82.194 41.7912L85.3133 42.3517L88.1955 43.4674L88.772 43.8231L91.261 46.8253L91.7189 47.6499L93.1142 53.5626L93.626 55.1041L93.5937 55.379L93.6153 55.6161L94.0032 56.8343L94.2995 63.1296L94.0894 64.8005L94.3803 66.4013L94.2294 72.4648L91.9937 79.0836L87.312 84.4842L83.6432 88.8931L80.4323 90.7418L78.4013 91.7497L77.5501 92.154L75.7614 93.329L71.6939 94.159L70.0185 93.8895L69.2804 93.7979L67.1524 94.2291L63.2896 94.7357L57.412 93.4475L53.5276 92.3857L51.308 91.6096L46.2654 87.1252L43.9435 83.7242L41.4545 73.8716L39.6874 67.6679L39.2887 58.6776L39.6335 53.9183L42.338 49.1106L46.0823 45.4078L51.4481 43.2033L54.1634 40.9773L56.5015 40.503L58.7049 40.8857Z" fill="#FF0000"/>
<path opacity="0.8" d="M59.459 29.4271L58.4785 29.2223L57.1424 29.4972L56.0757 31.0279L55.51 32.7311L55.7147 33.7282L56.178 35.0272L56.9592 35.5446L57.2932 36.3854L58.4785 37.9215L59.5883 40.029L60.9028 40.8321L61.2853 41.7268L62.0719 43.0203L62.7183 44.2492L62.3466 46.0818L62.5136 48.0545L62.3305 48.3509L62.6537 48.739L62.9662 49.127L64.3615 49.1324L65.4713 48.1299L65.5467 46.9495L65.2827 46.6154L64.9164 46.5938L64.647 46.2273L64.9272 44.9337L63.9467 43.0581L63.0254 40.9399L61.5116 38.2072L61.059 36.1321L60.9082 35.3883L60.4449 34.251L59.9169 32.6772L59.8469 32.1382L59.8738 31.4537L59.9438 30.4674L59.459 29.4271Z" fill="#401500"/>
<path opacity="0.8" d="M122.773 30.3496L128.608 34.8827L134.149 39.0198L137.209 39.2817L136.386 43.7287L133.602 44.3024L132.794 45.9853L133.508 49.7046L135.863 70.917L131.285 90.8692L118.114 109.623L105.667 116.796L97.9891 118.729L79.3098 119.962L64.7282 117.359L48.6039 112.198L37.9858 107.095L41.1788 101.36L42.3334 99.1464L54.9395 102.617L75.9939 99.1533L90.1629 91.0834L95.0168 86.925L100.175 82.1442L113.275 67.3159L120.329 52.4564L124.647 42.9423L125.66 38.4937L123.311 35.2816L121.564 32.8044L122.773 30.3496Z" fill="#FFE600"/>
<path opacity="0.8" d="M128.51 53.9337L118.047 84.1058L105.751 101.28L95.2427 107.694L78.1479 109.324L60.7636 108.876L58.9452 109.616L61.9585 111.067L80.2727 112.285L96.0085 111.131L110.496 104.855L122.143 92.0468L126.76 79.7346L129.956 63.026L131.056 54.0229L128.51 53.9337Z" fill="#FFE600"/>
<path opacity="0.8" d="M42.1435 99.5177L38.4657 97.2687L32.2977 100.493L37.9857 107.095L42.1435 99.5177Z" fill="#634411"/>
<path opacity="0.8" d="M123.065 30.4925L121.844 29.7059L120.987 31.4904L121.746 33.0588L123.065 30.4925Z" fill="#634411"/>
<defs>
<filter id="filter0_d_1_388" x="0" y="0" width="185" height="185" filterUnits="userSpaceOnUse" color-interpolation-filters="sRGB">
<feFlood flood-opacity="0" result="BackgroundImageFix"/>
<feColorMatrix in="SourceAlpha" type="matrix" values="0 0 0 0 0 0 0 0 0 0 0 0 0 0 0 0 0 0 127 0" result="hardAlpha"/>
<feOffset dx="2" dy="2"/>
<feGaussianBlur stdDeviation="5"/>
<feComposite in2="hardAlpha" operator="out"/>
<feColorMatrix type="matrix" values="0 0 0 0 0 0 0 0 0 0 0 0 0 0 0 0 0 0 0.15 0"/>
<feBlend mode="normal" in2="BackgroundImageFix" result="effect1_dropShadow_1_388"/>
<feBlend mode="normal" in="SourceGraphic" in2="effect1_dropShadow_1_388" result="shape"/>
</filter>
</defs>
</svg>
