<svg width="135" height="136" viewBox="0 0 135 136" fill="none" xmlns="http://www.w3.org/2000/svg">
<path d="M70.1069 105.992L69.3869 120.68H61.6829L60.6749 105.704H62.8349L63.2309 111.968L67.6229 111.752L67.9109 105.992H70.1069ZM76.9109 101.312L77.3789 106.532L83.9669 106.244L84.0389 108.404L77.5949 108.692L78.5309 118.736L76.3709 118.808L74.7509 101.492L76.9109 101.312ZM67.2989 118.52L67.5149 113.912L63.3749 114.128L63.6989 118.52H67.2989ZM75.1109 120.644L75.5429 127.34L73.3109 127.412L72.9149 120.824L75.1109 120.644ZM106.258 116.396L100.174 120.392L109.39 130.472L107.878 131.984L98.3739 121.58L87.4299 128.78L86.0619 127.124L104.89 114.704L106.258 116.396ZM102.118 96.992L102.586 102.212L109.174 101.924L109.246 104.084L102.766 104.372L103.666 114.056L101.506 114.128L99.9579 97.172L102.118 96.992ZM91.0659 104.156L91.4979 110.852L89.2659 110.924L88.8699 104.336L91.0659 104.156ZM127.325 100.952L127.793 106.172L134.381 105.884L134.453 108.044L128.009 108.332L128.945 118.376L126.785 118.448L125.165 101.132L127.325 100.952ZM116.813 117.944L118.793 106.712L110.549 107.216L110.477 105.02L121.421 104.408L118.937 118.34L116.813 117.944ZM133.157 126.332H121.637L122.069 114.668L124.229 114.74L123.869 124.172H133.157V126.332Z" fill="black"/>
<path opacity="0.4" d="M81.7285 33.4321L87.7491 38.3977V42.6084V47.4239L86.6941 57.0551L85.6438 61.7206L82.9336 68.4914L79.173 76.0172L76.1627 79.0275L76.9129 80.8327V84.748L76.1627 89.5636L70.7423 94.8293L59.7561 99.1244L44.4701 101L32.2178 97.8396L24.2419 93.9243L19.7311 85.4983L20.4814 79.7824L21.2363 79.0275L19.7311 77.6724L15.3657 73.1569L10.8503 60.8203L8.89497 48.1789V40.6531L12.8056 35.6875L14.9109 35.5374L22.2866 45.4686L28.4573 47.724L35.9831 48.3289L49.3747 49.9747L66.0768 47.2739L73.4525 42.6084L76.4628 39.9029L76.3128 37.4927L69.992 33.4321L61.4159 30.8719L52.385 29.6669H44.4701H39.1434L37.3335 30.7219L34.1778 28.7666L38.6886 27.1114H52.8352L63.2212 27.8616L74.2027 29.5168L81.7285 33.4321Z" fill="black"/>
<path opacity="0.4" d="M57.4492 47.7804L40.9394 33.2165L36.1051 29.1887L31.81 25.8314L20.4674 16.7723L13.087 10.9346L10.9394 8.98867H10.4705L9.79534 8.58542L8.89506 8.85269L4.22955 13.0165L1.00823 16.3034L0.000110215 18.2494V19.1215L2.61655 21.8739L13.0213 33.0805L21.2083 41.2018L27.9838 47.0395L32.9494 48.8542L47.11 50.3265H49.8625L53.487 49.9748L57.9837 49.1871L58.6167 48.479L57.4492 47.7804Z" fill="black"/>
<path opacity="0.8" d="M37.8493 29.4561H42.693L46.2191 29.1795L52.7414 29.4561L57.3506 30.1548L60.858 30.544L65.3922 32.0585L69.2747 33.0057L71.9755 34.3561L76.3128 37.493L77.0724 39.5655L76.2471 40.6533L71.8254 44.0669L68.5619 45.9753L65.5235 47.8134L59.4138 48.5261H58.3306L52.8539 44.1794L46.2191 38.2901L39.8796 32.7431L37.0334 30.5674L37.371 29.8547L37.8493 29.4561Z" fill="black"/>
<path opacity="0.8" d="M18.6996 38.1773L27.6977 46.2751L28.7105 47.0629L29.864 47.724L31.0785 48.1695L27.6602 48.0007L21.996 45.825L19.7124 42.9038L16.824 38.6274L16.3786 36.4142L18.6996 38.1773Z" fill="black"/>
<path opacity="0.6" d="M67.6148 82.6757L46.7349 86.952L37.5304 86.122L28.7668 82.399L22.8353 79.9138C22.8353 79.9138 32.9071 86.3987 33.4604 86.9473C34.0137 87.4959 40.7752 89.2261 40.7752 89.2261L48.3244 88.3962L67.6148 82.6757Z" fill="black"/>
<path opacity="0.8" d="M50.8048 0.445451L50.2422 2.98218L49.431 4.08877H48.6901L47.9586 3.46514V2.49452L48.7136 1.1441L49.6795 0L50.8048 0.445451Z" fill="#E2C66A"/>
<path opacity="0.8" d="M43.1289 3.77459L40.9861 5.24224L39.6356 5.49544L39.0964 4.98903L38.9886 4.03249L39.6497 3.32445L41.122 2.85556L42.6084 2.68207L43.1289 3.77459Z" fill="#E2C66A"/>
<path opacity="0.8" d="M50.2937 8.0133L50.0265 10.5969L49.3513 11.7926L48.6151 11.877L47.8133 11.3425L47.7007 10.3812L48.2962 8.95578L49.1215 7.70383L50.2937 8.0133Z" fill="#E2C66A"/>
<path opacity="0.8" d="M55.672 27.0882L56.4973 29.5499L56.3753 30.9144L55.7423 31.2988L54.7905 31.1394L54.2888 30.3095L54.2419 28.7668L54.481 27.2898L55.672 27.0882Z" fill="#E2C66A"/>
<path opacity="0.8" d="M55.6439 22.5864L57.7774 24.0634L58.4995 25.231L58.2181 25.9156L57.3647 26.361L56.4644 25.9953L55.5032 24.7855L54.8092 23.4586L55.6439 22.5864Z" fill="#E2C66A"/>
<path opacity="0.8" d="M50.8188 33.9012L49.7357 36.2644L48.7135 37.1788L47.9867 37.0241L47.4006 36.2598L47.6069 35.3079L48.6244 34.1497L49.806 33.2354L50.8188 33.9012Z" fill="#E2C66A"/>
<path opacity="0.8" d="M59.1417 33.8357L60.2483 36.1849L60.2858 37.554L59.6997 38.0089L58.7385 37.962L58.143 37.1977L57.9132 35.6691L57.9789 34.1733L59.1417 33.8357Z" fill="#E2C66A"/>
<path opacity="0.8" d="M53.4822 17.0537L54.0261 19.5904L53.7542 20.9361L53.079 21.2456L52.1552 20.983L51.7473 20.1015L51.8692 18.5635L52.2725 17.1193L53.4822 17.0537Z" fill="#E2C66A"/>
<path opacity="0.8" d="M57.2427 9.20441L59.2261 10.8831L59.831 12.1162L59.4887 12.768L58.5931 13.1291L57.7351 12.6789L56.8911 11.3848L56.3284 9.99684L57.2427 9.20441Z" fill="#E2C66A"/>
</svg>
