<svg width="133" height="125" viewBox="0 0 133 125" fill="none" xmlns="http://www.w3.org/2000/svg">
<g clip-path="url(#clip0_1_385)">
<path d="M19.0738 72.9709L24.2396 61.3997L29.4054 51.5811L31.7837 48.7935L33.643 45.0719L35.71 41.2494L38.8088 36.911L42.4267 31.846L47.2722 24.9246L49.5556 22.0303L52.1385 19.1954L54.6177 16.3456L55.5488 14.7976L56.48 15.2098L57.6098 15.5212L58.2355 19.1954L60.4062 25.8528L61.542 32.5696L62.2656 34.2243L63.2975 39.0787L65.056 46.8304L65.8804 49.2057L66.604 52.616L67.123 58.197L68.1549 63.9826L70.1181 75.9689L70.9454 79.0678V81.9621V83.8214L69.9105 85.2686L68.3625 87.0241L66.2956 87.6469L63.5051 86.3006L57.6098 85.3724L49.7632 83.3055L42.9427 80.6187L37.9815 80.2066L27.7536 78.967H25.8913L23.2046 78.7594L21.0369 78.2434L20.3133 74.5218L19.0738 74.0058V72.9709Z" fill="#0BE600"/>
<path d="M47.6963 0.640533L49.6594 1.7763L51.8301 4.463L53.6895 7.78727L55.1366 10.7675H56.3762L57.0997 11.5623H58.0279L62.1618 8.70063L67.6389 6.10289L72.8048 4.25838L75.8028 3.94701L70.9454 3.73943L67.123 3.84322L61.7496 3.01586L57.6098 2.39608L52.1385 1.15652L47.6963 0.640533Z" fill="#0BE600"/>
<path opacity="0.8" d="M58.8553 14.7976L66.8116 20.0672L70.9454 22.1341L76.731 25.3368L82.7242 30.0904L86.858 33.133L91.8192 38.1505L96.9851 44.3483L100.395 48.1737L104.63 53.2358L106.904 56.0263L107.42 58.9205L105.045 60.7799L102.358 64.0864L96.6737 67.289L92.0239 69.872L87.89 72.1464L84.1713 75.4529L80.0375 79.2754L75.3877 83.2017L70.9454 83.8214L70.3257 80.8263L66.3994 60.6761L65.3645 52.8236L63.9173 46.3114L61.7496 35.36L60.1986 29.4707L58.8553 23.4775L57.6098 17.7927V15.5212L58.3393 14.7976H58.8553Z" fill="#FF0000"/>
<path opacity="0.8" d="M46.4271 0L40.6296 3.34503L36.8368 5.13023L33.9366 6.1029L31.3715 6.58034L28.8064 7.78727L25.3516 9.14545L20.4438 11.0404L17.4339 12.1554L31.0394 8.92304L39.9594 9.47758L48.9922 10.9277L53.9 12.1554H54.7896L55.5725 11.5623V9.03276L51.3349 2.45243L48.6897 0.75619L46.4271 0Z" fill="#FF0000"/>
<path opacity="0.8" d="M59.9317 13.1547V14.7976H58.3393L62.7282 17.3627L68.8637 21.6122L77.2648 27.2495L85.0936 32.5755L93.0291 41.3473L101.905 51.2222L107.21 57.7432L107.42 57.3221L105.558 50.3266L106.083 43.3311L104.932 36.4394L104.411 29.3402L105.351 25.1618L104.411 23.9104L95.6417 19.1953L87.3918 15.8711L78.5162 14.7976L66.1977 13.5729L59.9317 13.1547Z" fill="#006EFF"/>
<path opacity="0.8" d="M16.0787 12.7366L13.6767 18.6883L10.3376 25.58L6.57737 30.6954L4.48969 34.9775L0 38.2128V39.1528L15.0348 28.7115L24.5361 23.8066L41.2435 18.3769L53.2506 14.0948L54.8164 13.1547L54.1906 12.7366L53.9 12.1554L39.4672 8.87558L34.1412 7.78726H31.5316L28.1688 8.03933L21.1941 10.6489L16.0787 12.7366Z" fill="#006EFF"/>
<path opacity="0.8" d="M0.52785 40.2975L0 41.3858L0.52785 42.5631L1.52424 46.5487L4.51341 50.7151L10.13 59.3209L11.761 64.4837L14.2964 69.8275L16.3811 73.3593H17.9202H19.0738L24.4412 63.3954L28.2459 55.0625L33.4088 46.9105L35.9472 43.3786L39.6599 36.6737L44.0992 31.0572L47.6963 25.7134L52.5211 19.1954L54.6177 16.3456L56.48 15.2098L55.1485 14.7976L54.8163 13.6678L47.9928 14.7976L39.2981 17.9232L30.5115 20.1888L23.4448 23.4715L18.3739 26.44L10.3109 30.6954L4.41852 36.0836L1.32852 38.2306L0 39.1528L0.52785 40.2975Z" fill="#FFE600"/>
<path opacity="0.8" d="M58.0279 11.5623L59.4068 12.5794L60.5901 13.1992H64.2079L70.4858 13.9999L79.7884 16.0223L87.8485 17.0187L96.816 21.0043L102.068 22.6501L105.351 25.1618L95.7277 17.6533L89.2986 13.6678L83.774 9.59027L80.42 6.51213L78.7001 5.24292L74.7086 3.89957L70.3671 4.42742L66.0198 6.07917L61.2187 7.78727L58.0279 11.5623Z" fill="#FFE600"/>
<path opacity="0.8" d="M56.5986 10.6252H55.0654L54.1076 11.5623L53.1527 12.1554L53.3959 13.2377L54.4101 13.9672L54.8757 14.6167L55.3827 15.0823H55.5043L56.2338 15.361L57.0256 15.874H57.1679H57.4912L58.3393 15.2424L58.7426 15.2009L58.9265 15.2424L59.4365 14.9103L59.9021 14.9399L60.5308 14.5307L60.5515 12.4697L59.4988 11.5623L57.936 10.9692L57.4497 11.0492L56.5986 10.6252Z" fill="#006EFF"/>
</g>
<path d="M104.834 93.048L106.022 110.076L103.862 110.148L102.674 93.228L104.834 93.048ZM94.2139 95.568L91.6939 110.58L89.5339 110.22L91.5859 97.872L83.3419 98.376L83.2699 96.18L94.2139 95.568ZM125.325 89.448L125.901 98.412L132.381 98.124L132.453 100.284L126.045 100.572L126.945 113.676L124.785 113.748L124.281 106.548L110.529 109.068L109.233 94.848L120.897 94.668V96.792L111.609 97.008L111.861 99.888L121.005 99.456L121.077 101.616L112.077 102.048L112.473 106.476L124.137 104.46L123.165 89.628L125.325 89.448Z" fill="black"/>
<defs>
<clipPath id="clip0_1_385">
<rect width="107.42" height="87.6439" fill="white"/>
</clipPath>
</defs>
</svg>
