<svg width="141" height="159" viewBox="0 0 141 159" fill="none" xmlns="http://www.w3.org/2000/svg">
<path d="M76.8339 110.048L78.0219 127.076L75.8619 127.148L75.2499 118.508L65.5659 119.192L65.3859 117.032L75.1059 116.348L74.6739 110.228L76.8339 110.048ZM61.0659 116.276L61.4979 122.972L59.2659 123.044L58.8699 116.456L61.0659 116.276ZM105.353 111.992L104.165 128.948L102.005 128.876L102.545 120.956L96.749 121.172L97.289 128.876L95.129 128.948L93.941 112.028L96.101 111.848L96.605 119.012L102.689 118.796L103.193 111.812L105.353 111.992ZM90.053 118.364L89.693 126.644L92.825 126.608V128.768L80.225 128.948V126.788L83.033 126.752L82.457 118.724L84.653 118.544L85.229 126.716L87.533 126.68L87.893 118.364H90.053ZM79.865 115.376L92.465 114.728V116.924L79.865 117.572V115.376ZM131.021 124.304L126.485 124.484L126.593 134.528H124.433L124.325 124.556L114.281 124.952L114.389 134.888H112.229L112.121 125.024L107.729 125.168V123.008L131.021 122.144V124.304ZM125.945 119.624L113.165 120.092L113.309 112.748L122.381 111.848L122.525 107.744L113.633 107.492V105.332L124.793 105.62L124.505 113.828L115.541 114.728L115.469 117.86L125.837 117.464L125.945 119.624Z" fill="black"/>
<path opacity="0.4" d="M19.2764 22.8761L39.8454 41.6379L50.1374 54.3985L59.5634 70.0969L66.2332 84.0937L69.6254 88.6002L78.0975 97.9963L79.4438 99.4884L76.4633 97.9848L74.2243 97.2987L71.9915 96.4744L70.9699 96.9884L72.057 100.744L72.3352 103.598L72.392 106.659L71.517 105.693L69.2989 103.228L67.0556 98.4948L66.064 94.2491L63.966 90.8676L61.5065 88.8942L57.9831 85.5858L50.4631 79.7918L45.627 75.6318L39.7352 72.6984L32.5349 66.2164L22.3453 54.3114L11.7412 42.1051L6.6027 34.3064L5.28415 29.5444L3.22806 25.3166L3.16549 18.2038L4.89401 13.6722L6.36989 13.9616L10.5235 16.1646L15.3751 19.9007L19.2764 22.8761Z" fill="#006EFF"/>
<path opacity="0.8" d="M20.6119 23.7206L22.6402 29.6736L21.6362 32.701L17.5612 33.2644L10.3429 31.5637L16.9558 34.5891L23.2612 34.2753L24.9244 36.4887L31.5331 43.5034L36.2874 48.5428L41.7954 54.3906L47.1008 60.0157L53.5069 66.8076L57.1354 71.3899L60.1987 75.8149L63.7439 80.8934L65.8759 85.642L68.217 88.1278L69.0195 87.371L66.4371 82.7767L63.6408 77.2312L60.3499 70.6932L55.0295 62.0744L49.1253 53.9657L42.8583 45.6855L34.1698 36.4648L27.9443 30.4732L23.8715 26.4421L20.6119 23.7206Z" fill="#006EFF"/>
<path opacity="0.8" d="M13.3769 18.36L13.6496 19.8729L12.4869 21.2702L11.1747 22.4528L8.68316 21.3882L8.16541 20.812L7.94631 19.5294L8.3372 17.4405L9.63724 16.5192L11.1605 16.6571L12.5101 17.7341L13.3769 18.36Z" fill="white"/>
<path d="M11.8834 19.3384L11.416 20.306L10.3457 20.4318L9.67399 20.021L9.49916 19.1129L9.93041 18.379L10.9147 17.9375L11.8989 18.5359L11.8834 19.3384Z" fill="black"/>
<path opacity="0.8" d="M99.8721 98.7485L104.256 99.8606L105.265 99.5904L106.127 98.0974L107.695 96.5338L109.018 95.8793L117.324 95.4562L118.202 94.918L120.607 94.6953L121.803 93.775L123.405 92.8023L124.561 91.9521L125.744 91.2164L126.935 89.1543L127.716 87.8016L128.728 86.8681L129.835 84.9502L129.856 82.5919L129.911 81.9641L130.331 81.1564L130.552 80.3227L131.349 78.6362L131.098 76.8747L130.911 75.4518L130.717 75.0327L130.61 74.2277L130.57 70.6599L128.641 65.4298L126.784 63.8745L126.148 62.5456L125.492 60.5037L124.194 58.6571L121.643 57.538L120.539 56.1105L119.718 54.8048L117.801 53.8751L116.734 53.6074L115.828 53.6558L114.343 52.9697L113.149 51.932L111.626 50.9231L109.625 50.5993L108.518 50.9221L107.485 51.1988L106.004 50.9566L104.317 50.4662L101.834 49.9945L100.424 50.8436L99.8905 50.9305L99.0112 51.1661L97.8259 50.7884L96.4381 50.9955L95.3707 51.4759L94.6471 51.973L93.9142 52.5582L93.4467 52.9899L92.8076 53.1875L91.7906 53.1305L90.1707 53.8117L89.0818 54.7163L88.1289 55.3045L87.4853 56.4194L87.0306 57.2068L86.3852 57.7126L85.6594 58.2135L84.571 58.5051L83.5409 59.0019L82.9715 59.9881L82.2693 61.2044L81.7202 62.1555L81.2273 63.0093L80.3507 63.7714L79.7452 64.82L79.7306 65.6016L79.5549 66.8151L79.4801 67.5568L79.0747 68.3311L79.0669 69.3349L79.1629 70.2219L79.3491 71.4209L79.5747 72.1645L79.7793 73.8627L80.1043 74.9652L80.9709 76.9572L81.5754 77.8728L82.703 80.3221L83.6339 82.6528L83.9952 83.3864L83.4529 84.5598L83.0092 85.4003L83.2755 86.9107L84.5254 88.4639L85.5526 89.4936L85.6459 89.8541L89.1171 91.7282L91.438 93.2449L92.2471 94.3462L94.6638 95.5439L96.818 96.7461L98.6639 98.2484L99.8721 98.7485Z" fill="#CEBAA3"/>
<path d="M85.947 58.3638L85.9437 69.1366L86.186 73.5333L87.2461 81.8431L87.6061 69.3271L88.1934 60.3156L88.0008 55.5266L87.4854 56.4193L87.0487 57.5809L86.0753 58.1416L85.947 58.3638Z" fill="#CEBAA3"/>
<path d="M129.955 81.6723L122.457 85.7476L119.007 87.4099L108.114 91.469L118.162 86.4799L127.112 80.4307L131.642 78.5348L131.054 79.4009L130.176 80.3082L130.099 81.4591L129.955 81.6723Z" fill="#CEBAA3"/>
<path d="M82.6713 61.2284L81.9399 62.4953L81.507 63.0199L83.6563 73.7465L85.2894 78.8942L84.2022 72.9181L83.0353 62.9927L82.9144 61.6806L82.6713 61.2284Z" fill="#CEBAA3"/>
<path d="M79.5457 68.2807L82.0129 75.4225L83.2601 78.9701L82.1944 74.415L80.5515 69.0953L79.8617 66.2749L79.9394 67.3645L79.6512 68.0349L79.5457 68.2807Z" fill="#CEBAA3"/>
<path d="M91.667 53.813L91.6529 53.9816L90.8396 68.2369L90.0807 77.1857L89.9593 81.7623L90.9911 75.3568L92.089 68.5217L94.2748 57.1014L95.3062 52.0471L94.3902 52.7604L93.3958 53.6365L92.3782 53.4544L91.8988 53.4115L91.667 53.813Z" fill="#CEBAA3"/>
<path d="M130.347 73.6031L130.204 73.6974L119.032 81.5976L114.809 83.9416L109.435 87.0654L115.006 83.0419L118.085 80.6716L126.195 72.9889L130.053 69.5663L129.893 70.7163L129.632 72.0154L130.304 72.804L130.579 73.2016L130.347 73.6031Z" fill="#CEBAA3"/>
<path d="M99.0113 51.166L97.1336 63.0968L94.9245 74.9714L97.5618 62.7151L100.395 54.2519L101.305 51.1544L101.193 50.6375L99.5018 51.0906L99.0113 51.166Z" fill="#CEBAA3"/>
<path d="M126.807 64.4387L118.217 72.9254L113.395 77.964L118.275 72.3562L123.495 65.1152L125.475 62.568L125.96 62.3591L126.579 63.9955L126.807 64.4387Z" fill="#CEBAA3"/>
<path d="M106.319 51.5544L104.881 56.3484L100.015 69.9632L105.856 55.4712L107.782 51.6402L107.196 51.5929L106.44 51.6242L106.319 51.5544Z" fill="#CEBAA3"/>
<path d="M115.236 53.818L112.75 58.168L107.85 68.0419L112.714 56.853L114.16 52.8177L114.599 53.2111L115.101 53.7817L115.236 53.818Z" fill="#CEBAA3"/>
<path d="M121.699 58.4954L117.309 64.3968L113.919 68.9265L117.811 62.5555L120.99 57.021L121.287 57.5974L121.458 58.1018L121.676 58.1391L121.699 58.4954Z" fill="#CEBAA3"/>
<path opacity="0.4" d="M81.0494 28.7329L54.7835 55.1205L41.8585 72.8294L30.2796 94.4066L22.2727 113.533L18.032 119.771L7.32105 132.869L5.61897 134.949L9.50324 132.748L12.4498 131.687L15.3792 130.442L16.777 131.063L15.567 136.15L15.3794 139.98L15.5008 144.072L16.6073 142.725L19.4113 139.29L22.1026 132.823L23.1535 127.087L25.7379 122.435L28.8961 119.641L33.3891 114.994L43.0606 106.77L49.2523 100.901L56.9333 96.6031L66.1334 87.4805L78.9767 70.9212L92.3544 53.9326L98.7154 43.184L100.17 36.7382L102.644 30.9582L102.269 21.4531L99.6675 15.5114L97.7147 15.9931L92.3086 19.2036L86.0687 24.507L81.0494 28.7329Z" fill="#006EFF"/>
<path opacity="0.8" d="M79.32 29.9468L76.9945 38.0295L78.5307 42.0086L84.0103 42.4985L93.5427 39.7613L84.9044 44.229L76.4615 44.2164L74.3827 47.2801L66.0072 57.0763L59.9814 64.1142L53.001 72.2808L46.2769 80.1367L38.1577 89.6221L33.6063 95.9769L29.7998 102.085L25.3917 109.097L22.8498 115.578L19.883 119.049L18.7623 118.09L21.9155 111.787L25.2932 104.199L29.2675 95.2536L35.8187 83.3978L43.1825 72.1858L51.02 60.7213L62.0314 47.8443L69.9609 39.4395L75.1413 33.7924L79.32 29.9468Z" fill="#006EFF"/>
<path opacity="0.8" d="M88.6383 22.3202L88.3717 24.3586L90.0149 26.15L91.844 27.6452L95.1034 26.0625L95.7579 25.2595L95.9678 23.532L95.311 20.7669L93.5151 19.6201L91.4892 19.9026L89.7559 21.4282L88.6383 22.3202Z" fill="white"/>
<path d="M90.6965 23.5307L91.3833 24.7929L92.821 24.892L93.6918 24.3L93.8668 23.0756L93.2434 22.1232L91.9002 21.5969L90.6241 22.4596L90.6965 23.5307Z" fill="black"/>
</svg>
