<svg width="140" height="131" viewBox="0 0 140 131" fill="none" xmlns="http://www.w3.org/2000/svg">
<path d="M106.414 96.4703L107.242 109.034L113.47 108.746L113.542 110.906L107.386 111.194L108.034 120.698L105.874 120.77L104.254 96.6503L106.414 96.4703ZM94.5697 105.758L94.6417 117.134L104.542 116.738V118.898L88.0177 119.51V117.35L92.4817 117.206L92.4097 105.758H94.5697ZM88.5217 100.466H100.834L100.402 113.606L98.2417 113.534L98.6017 102.626H88.5217V100.466ZM135.754 90.4943L137.374 107.918L135.214 107.99L133.594 90.6743L135.754 90.4943ZM136.618 111.302L136.006 118.97L120.886 118.682L120.814 122.894L138.274 123.29V125.45L118.654 125.054L118.726 116.522L133.954 116.81L134.314 113.426L120.274 112.814V110.654L136.618 111.302ZM120.562 97.2983L120.994 103.994L118.762 104.066L118.366 97.4783L120.562 97.2983Z" fill="black"/>
<path opacity="0.8" d="M38.7049 14.8857L42.0936 16.2763L45.4823 15.5864L47.6372 15.3654L49.8999 14.9773L54.6516 14.7887L57.8248 15.1282L61.6822 15.7103L62.194 15.7912L65.3133 16.3517L68.1955 17.4674L68.772 17.8231L71.261 20.8253L71.7189 21.6499L73.1142 27.5626L73.626 29.1041L73.5937 29.379L73.6153 29.6161L74.0032 30.8343L74.2995 37.1296L74.0894 38.8005L74.3803 40.4013L74.2294 46.4648L71.9937 53.0836L67.312 58.4842L63.6432 62.8931L60.4323 64.7418L58.4013 65.7497L57.5501 66.154L55.7614 67.329L51.6939 68.159L50.0185 67.8895L49.2804 67.7979L47.1524 68.2291L43.2896 68.7357L37.412 67.4475L33.5276 66.3857L31.308 65.6096L26.2654 61.1252L23.9435 57.7242L21.4545 47.8716L19.6874 41.6679L19.2887 32.6776L19.6335 27.9183L22.338 23.1106L26.0823 19.4078L31.4481 17.2033L34.1634 14.9773L36.5015 14.503L38.7049 14.8857Z" fill="#FF0000"/>
<path opacity="0.8" d="M39.459 3.42712L38.4785 3.22231L37.1424 3.49719L36.0757 5.02791L35.51 6.7311L35.7147 7.72822L36.178 9.02718L36.9592 9.54461L37.2932 10.3854L38.4785 11.9215L39.5883 14.029L40.9028 14.8321L41.2853 15.7268L42.0719 17.0203L42.7183 18.2492L42.3466 20.0818L42.5136 22.0545L42.3305 22.3509L42.6537 22.739L42.9662 23.127L44.3615 23.1324L45.4713 22.1299L45.5467 20.9495L45.2827 20.6154L44.9164 20.5938L44.647 20.2273L44.9272 18.9337L43.9467 17.0581L43.0254 14.9399L41.5116 12.2072L41.059 10.1321L40.9082 9.3883L40.4449 8.25104L39.9169 6.6772L39.8469 6.13822L39.8738 5.45371L39.9438 4.46736L39.459 3.42712Z" fill="#401500"/>
<path opacity="0.8" d="M102.773 4.34963L108.608 8.88269L114.149 13.0198L117.209 13.2817L116.386 17.7287L113.602 18.3024L112.794 19.9853L113.508 23.7046L115.863 44.917L111.285 64.8692L98.1136 83.6226L85.6669 90.7956L77.9891 92.7294L59.3098 93.9623L44.7282 91.3593L28.6039 86.1984L17.9858 81.0954L21.1788 75.3603L22.3334 73.1464L34.9395 76.6167L55.9939 73.1533L70.1629 65.0834L75.0168 60.925L80.1755 56.1442L93.2754 41.3159L100.329 26.4564L104.647 16.9423L105.66 12.4937L103.311 9.28158L101.564 6.80436L102.773 4.34963Z" fill="#FFE600"/>
<path opacity="0.8" d="M108.51 27.9337L98.0468 58.1058L85.7509 75.2802L75.2427 81.6936L58.1479 83.3242L40.7636 82.8764L38.9452 83.6159L41.9585 85.0673L60.2727 86.2853L76.0085 85.131L90.4962 78.8547L102.143 66.0468L106.76 53.7346L109.956 37.026L111.056 28.0229L108.51 27.9337Z" fill="#FFE600"/>
<path opacity="0.8" d="M22.1435 73.5177L18.4657 71.2687L12.2977 74.4926L17.9857 81.0951L22.1435 73.5177Z" fill="#634411"/>
<path opacity="0.8" d="M103.065 4.49249L101.844 3.70587L100.987 5.49037L101.746 7.05883L103.065 4.49249Z" fill="#634411"/>
</svg>
