<svg width="149" height="159" viewBox="0 0 149 159" fill="none" xmlns="http://www.w3.org/2000/svg">
<path d="M63.8746 127.409L74.6026 126.725L74.6386 128.237L71.7226 132.881L74.7106 142.061L72.6946 142.637L70.2466 135.257L66.3586 141.485L64.7026 140.369L71.9386 128.885L64.0546 129.497L63.8746 127.409ZM84.8986 124.313L86.5186 141.737L84.3586 141.809L83.4946 132.665L74.9266 133.241L74.7466 131.081L83.2786 130.505L82.7386 124.493L84.8986 124.313ZM80.7586 143.645L81.1906 150.341L78.9586 150.413L78.5626 143.825L80.7586 143.645ZM112.662 135.185L107.046 135.401L107.154 140.657H104.994L104.886 135.473L97.0016 135.761L97.1096 141.017H94.9496L94.8416 135.869L89.3696 136.049V133.889L112.662 133.025V135.185ZM91.2776 142.565H107.55L106.902 152.681L104.706 152.609L105.246 144.725H91.2776V142.565ZM101.43 123.341L101.646 129.245L99.4856 129.281L99.2696 123.521L101.43 123.341ZM121.597 139.757L134.557 139.253L133.873 153.257H122.461L121.597 139.757ZM124.477 151.097H131.785L132.253 141.485L123.901 141.881L124.477 151.097ZM114.289 123.089L125.017 122.405L125.053 123.917L122.137 128.561L125.125 137.741L123.109 138.317L120.661 130.937L116.773 137.165L115.117 136.049L122.353 124.565L114.469 125.177L114.289 123.089ZM135.313 119.993L136.933 137.417L134.773 137.489L133.945 128.705L125.341 129.281L125.161 127.121L133.729 126.545L133.153 120.173L135.313 119.993Z" fill="black"/>
<path opacity="0.8" d="M45.7629 77.462L32.1927 64.2408L29.0108 54.7307L31.4805 46.0085L34.6833 42.7158L31.9894 48.3893L31.3123 51.4045L33.334 56.4869L35.6601 55.6451L42.172 53.2199L47.1793 49.2421L50.2286 48.6289L55.7699 48.5538L65.2553 51.2042L72.3389 52.0684L79.3502 51.6405L85.5309 53.2364L91.193 55.7387L95.7083 57.4965L99.3368 57.6379L102.117 58.2707L102.9 59.7919L105.191 59.5685L107.296 59.927L110.839 60.7404L116.816 65.0563L116.647 66.5845L108.88 64.297L105.24 63.3907L99.2962 61.7457L92.904 62.307L87.1871 63.1426L82.9619 61.2873L77.1174 59.7403L72.3656 61.7152L67.1132 61.4957L59.9013 62.9547L50.5789 68.2034L48.4135 70.428L47.8544 71.7714L46.4437 75.295L46.4263 76.7872L45.7629 77.462Z" fill="#FF5440"/>
<path opacity="0.8" d="M49.094 79.0163L52.9602 75.0488L59.1239 71.6256L62.069 70.3439L66.6345 68.9509L68.0628 68.838L69.4199 70.1541L73.2536 71.4434L78.8843 71.0827L80.4152 71.2571L82.059 72.8599L85.289 75.1541L89.3387 74.6725L93.5263 73.4705L96.6686 72.761L99.5497 73.873L103.918 75.5785L108.479 77.4827L114.03 78.3646L117.551 77.6482L121.936 77.0184L125.708 80.6936L126.814 84.7883L126.268 86.7046L126.108 89.1897L125.289 92.7359L122.355 94.5855L119.693 95.5755L113.28 94.415L104.639 90.8998L98.8986 90.0214L90.845 87.4474L83.8275 84.0103L78.5803 84.3614L73.4044 82.7101L66.1299 81.468L61.7337 81.3329L57.1403 80.6255L52.7321 79.5413L50.1707 80.8135L49.094 79.0163Z" fill="#FF5440"/>
<path opacity="0.8" d="M70.3854 26.7832L69.6794 26.855L59.3227 27.8848L54.108 30.7227L53.1607 31.6893L54.6141 33.0983L61.847 34.5804L66.0124 35.5323L69.7417 36.153L73.7663 37.2468L77.4044 37.7718L80.46 37.9263L86.1238 40.2365L91.5134 43.2221L99.1955 46.7548L107.133 47.3221L112.786 48.8674L115.013 51.0378L119.284 52.941L126.679 52.4178L130.312 52.5565L131.664 53.8754L130.627 54.9434L129.3 55.5356L128.931 56.6836L130.876 59.33L130.122 60.1063L129.461 60.7862L125.577 55.8667L122.792 54.6635L120.791 54.9735L116.763 53.6905L113.306 52.0131L111.083 50.229L106.862 48.5629L104.29 49.2673L97.2045 47.4485L93.8355 45.6775L91.2409 44.2788L88.3546 42.5962L85.5726 41.5822L82.4223 39.838L78.3032 40.9107L75.3303 40.0921L69.5803 38.2567L67.2646 36.569L64.295 35.9397L63.4655 35.551L61.2043 35.1716L59.234 34.9644L56.4898 34.5692L53.7458 34.0158L51.3656 32.0992L49.1608 31.6167L47.429 32.3022L45.7413 32.5816L47.3316 30.9512L50.7703 29.4487L54.2863 28.1747L58.416 27.3533L64.3205 26.792L70.3854 26.7832Z" fill="#FF5440"/>
<path opacity="0.25" d="M71.1168 26.9419L80.6888 27.9111L84.7144 29.6898L88.0513 30.6939L93.1442 30.7161L95.7295 31.1708L98.0464 33.8729L101.289 34.605L104.782 34.2397L109.192 37.0957C109.192 37.0957 111.067 38.2968 111.345 38.5681C111.624 38.8394 116.225 39.5491 116.225 39.5491L121.142 43.1723L125.038 45.4428L127.138 46.0479L128.829 46.5311L131.599 49.9502L132.311 52.3531L132.464 53.4896L129.504 53.3893L126.697 54.0622L123.96 53.6434L121.363 53.63L119.227 53.4334L116.713 52.512L113.952 50.7087L111.846 49.738L109.336 48.4586L107.187 47.7149L105.924 47.2311L103.641 47.9445L100.41 47.5751L98.1291 46.8305L92.8453 44.2358L89.3193 42.5036L86.04 40.6182L83.0031 39.5837L81.2182 38.9271L78.9429 38.5948L75.5248 38.1354L72.8464 37.6058L69.3564 36.3549L66.4259 35.8099L63.4788 35.2344L60.9432 34.6276L59.5185 34.2838L57.5186 34.0465L55.6732 33.6071L54.293 33.114L53.6933 32.5287L53.1765 32.0237L52.9643 31.631L53.3411 31.2428L53.9441 30.627L54.5629 30.3453L55.6709 29.786L57.2748 28.8271L58.6532 28.1217L59.7005 27.6941L60.5289 27.5562L65.0027 27.1156L65.8163 27.0845L67.3173 26.9719L68.0724 26.979L68.8197 26.9838L70.0658 26.8508L71.1168 26.9419Z" fill="#FF5440"/>
<path opacity="0.25" d="M47.1947 31.625L50.5374 31.2618L52.2569 32.3096L52.9818 33.4072L54.4249 34.1629L59.3873 34.8093L61.7338 35.2612L63.3416 35.4072L64.4318 35.7539L67.4618 36.4098L68.1324 36.858L69.0493 37.6278L74.3014 39.5543L78.0938 40.8526L79.5375 40.2438L81.8341 39.6156L82.7458 39.8149L85.3607 41.2026L89.1242 42.8131L93.6479 45.2452L95.581 46.5664L98.0124 47.3218L99.6938 48.0673L102.042 48.6696L103.385 48.7152L104.678 48.9853L106.85 48.1276L110.101 49.4484L112.015 50.1476L113.787 51.8786L115.232 52.6005L116.249 53.4346L118.866 54.2282L120.153 54.5011L120.778 54.7173L121.778 54.836L122.606 54.711L123.158 54.5119L124.214 55.0879L125.501 55.5061L126.325 56.3126L127.744 58.3532L128.859 59.3787L129.292 60.0342L129.431 60.4734L130.611 65.4374L130.097 67.3293L129.342 69.1873L128.986 71.9303L128.574 76.535L127.768 79.7384L127.418 81.5292L127.27 83.4872L127.653 85.9758L127.34 89.1766L125.806 91.6924L125.03 91.9142L124.809 88.8238L125.387 86.5019L125.027 83.9088L123.941 82.143L122.03 80.0714L120.945 78.7337L119.834 78.2138L118.553 78.0886L117.204 78.2508L115.112 78.5975L113.447 78.3106L108.343 78.2551L106.714 76.7893L101.944 74.8528L97.5144 73.6681L95.3004 73.5465L89.9898 74.5118L89.2604 74.906L86.5924 75.0298L85.2665 75.1861L81.9538 72.9827L81.0761 72.139L79.9871 71.2579L77.5575 71.4571L75.5089 71.7272L74.0094 71.806L72.7962 71.9147L71.7174 71.2719L70.0633 70.65L69.361 70.2651L68.6249 69.5492L68.066 68.9418L67.4539 69.0287L66.6621 69.1732L65.1509 69.5352L62.1005 70.5246L60.7946 71.1446L59.0413 71.8878L57.3872 72.8147L55.3304 73.8866L53.5799 74.9644L49.3568 78.8809L48.8136 79.0954C48.8136 79.0954 47.3901 77.9733 47.2981 77.9373C47.2062 77.9013 46.1246 77.2535 46.1246 77.2535L45.9356 76.6966L46.0622 75.2113L47.0555 73.2445L47.1049 71.9458L47.4719 70.759L49.0529 69.2456L52.0419 66.8989L59.1903 62.8711L62.5307 61.5404L66.8345 61.0533L69.2061 61.2347L70.8768 61.3994L72.2366 61.4158L74.9348 60.4454L76.9226 59.4898L78.2981 59.7548L81.0617 60.5151L83.4173 61.496L85.8295 62.3013L86.9532 62.7221L87.3943 62.8067L90.102 62.4637L94.5124 62.1496L95.8926 61.8256L99.1904 61.4405L102.722 62.4644L112.003 64.6985L113.572 63.4812L110.915 62.222L107.608 60.4568L103.21 59.9403L101.909 60.044L101.084 58.2491L94.6787 57.5916L86.9372 54.7171L79.1892 51.9648L76.0301 52.7164L73.5432 52.4193L64.1512 51.5637L60.9147 50.4526L56.5122 48.7326L54.6656 49.0715L49.5542 49.6129L47.541 49.6069L46.0251 50.8017L44.1034 52.6113L39.7834 54.8733L34.862 57.144L32.6477 56.3636L31.8878 54.2502L30.974 52.1079L31.0185 50.8977L31.793 47.8431L32.5808 45.8621L33.7595 43.4457L36.6344 39.8756L43.9136 34.8215L46.0377 32.5204L47.1947 31.625Z" fill="#FF5440"/>
<path opacity="0.8" d="M34.1144 115.199L16.7283 107.67L10.3712 99.9145L9.57633 90.8843L11.3982 86.6677L10.899 92.9283L11.3388 95.9871L15.0364 100.018L16.9108 98.4035L22.1339 93.8203L25.3984 88.3213L28.0301 86.6634L33.1822 84.6218L42.9899 83.7243L49.9175 82.0119L56.3178 79.1176L62.662 78.4102L68.8439 78.7344L73.6891 78.7709L77.1305 77.6122L79.954 77.2144L81.2265 78.3577L83.2885 77.3338L85.3831 76.92L88.9842 76.4195L96.1053 78.3268L96.4907 79.8152L88.4181 80.4406L84.694 80.8885L78.554 81.4656L72.7797 84.2644L67.7341 87.0791L63.1253 86.8483L57.1128 87.4818L53.3744 91.018L48.3876 92.6815L42.1665 96.6108L35.3214 104.833L34.0891 107.682L34.0445 109.137L33.9797 112.931L34.4943 114.332L34.1144 115.199Z" fill="#FF5440"/>
<path opacity="0.8" d="M37.7805 115.467L39.9822 110.383L44.5249 104.991L46.8212 102.746L50.5924 99.8195L51.8872 99.2059L53.6238 99.9531L57.6652 99.7942L62.7993 97.4538L64.2921 97.0722L66.3985 97.9853L70.2334 98.9803L73.8468 97.0895L77.3329 94.4763L80.0171 92.6953L83.1054 92.7096L87.7946 92.7494L92.7351 92.9063L98.2366 91.7556L101.272 89.8335L105.146 87.685L109.979 89.7778L112.469 93.2113L112.64 95.1965L113.375 97.5757L113.872 101.181L111.787 103.954L109.652 105.826L103.246 107.023L93.9191 106.812L88.2419 108.033L79.7994 108.493L72.0182 107.777L67.2393 109.972L61.8145 110.27L54.574 111.697L50.4174 113.135L45.8729 114.108L41.3674 114.663L39.4261 116.763L37.7805 115.467Z" fill="#FF5440"/>
<path opacity="0.8" d="M39.0963 59.0762L38.4621 59.3943L29.1493 64.0414L25.2853 68.5487L24.7439 69.7891L26.6036 70.5889L33.8905 69.4008L38.122 68.8085L41.8282 68.0619L45.9786 67.6523L49.5654 66.8487L52.4761 65.906L58.5913 66.05L64.6904 66.9229L73.1267 67.4915L80.7471 65.1976L86.5795 64.6309L89.4334 65.867L94.1018 66.1262L100.827 63.0065L104.272 61.8433L106.005 62.595L105.415 63.9622L104.385 64.988L104.449 66.1918L107.208 67.9734L106.78 68.967L106.404 69.8374L101.024 66.6217L97.9927 66.4881L96.2333 67.4897L92.0124 67.7235L88.1849 67.3857L85.4728 66.5091L80.9345 66.454L78.7816 68.0273L71.5128 68.8482L67.7341 68.3916L64.8117 68.0074L61.5156 67.4618L58.5548 67.5039L54.9901 66.9945L51.5222 69.4624L48.4525 69.7551L42.4258 70.0854L39.6611 69.3319L36.6619 69.8003L35.7484 69.7321L33.5002 70.1819L31.5851 70.6894L28.8798 71.2963L26.1184 71.7552L23.2121 70.8108L20.98 71.1443L19.6053 72.4011L18.1274 73.2626L19.0336 71.1731L21.7128 68.5456L24.5456 66.1041L28.1128 63.8672L33.4314 61.2419L39.0963 59.0762Z" fill="#FF5440"/>
<path opacity="0.25" d="M39.8361 58.9638L49.1267 56.4643L53.5218 56.6944L56.9975 56.4457L61.7652 54.6545L64.3431 54.1598L67.4697 55.8608L70.7607 55.3914L73.8952 53.8073L79.0328 54.9075C79.0328 54.9075 81.2123 55.363 81.569 55.5175C81.9258 55.672 86.4784 54.6984 86.4784 54.6984L92.3627 56.3353L96.8116 57.0711L98.9892 56.8896L100.742 56.7396L104.547 58.9494L106.067 60.9418L106.615 61.9496L103.812 62.909L101.429 64.5363L98.7218 65.1187L96.2898 66.0301L94.2236 66.6063L91.5458 66.6397L88.3244 65.9365L86.0107 65.7786L83.2095 65.4759L80.9372 65.5452L79.5845 65.5424L77.7042 67.0215L74.5531 67.8258L72.1568 67.9413L66.2957 67.3961L62.384 67.0316L58.6485 66.4362L55.4423 66.5499L53.5406 66.5712L51.296 67.0701L47.938 67.8568L45.2464 68.3147L41.5397 68.3873L38.6071 68.9206L35.648 69.4311L33.0624 69.7661L31.6086 69.9517L29.6552 70.4414L27.7741 70.6872L26.3089 70.7175L25.5401 70.3838L24.8775 70.0956L24.5395 69.8041L24.7535 69.3073L25.098 68.5173L25.5761 68.0338L26.4127 67.1169L27.5704 65.6502L28.6077 64.5006L29.4344 63.7283L30.1595 63.3047L34.1839 61.3013L34.9332 60.9828L36.2959 60.3436L37.0042 60.0816L37.7042 59.8202L38.8215 59.2526L39.8361 58.9638Z" fill="#FF5440"/>
<path opacity="0.25" d="M19.1454 71.8513L22.1401 70.3227L24.1199 70.6903L25.188 71.4581L26.8054 71.651L31.6731 70.4896L34.0269 70.0772L35.5814 69.6417L36.7236 69.5778L39.7888 69.1128L40.575 69.2932L41.7057 69.6864L47.2996 69.6183L51.3058 69.4825L52.4384 68.3999L54.3613 66.9957L55.2842 66.8576L58.2218 67.2243L62.312 67.3906L67.405 68.0542L69.6817 68.6012L72.2227 68.4421L74.0593 68.5407L76.4686 68.2681L77.7396 67.833L79.0438 67.6255L80.7691 66.051L84.2772 66.1288L86.3142 66.1016L88.5864 67.0888L90.1933 67.2496L91.4409 67.6671L94.1688 67.4778L95.4693 67.2748L96.1297 67.2548L97.1064 67.0099L97.8364 66.5983L98.2809 66.216L99.4727 66.3787L100.824 66.3117L101.882 66.772L103.934 68.1742L105.34 68.7362L105.979 69.1947L106.264 69.5559L109.133 73.7753L109.327 75.726L109.282 77.7312L109.924 80.4215L111.178 84.8713L111.565 88.1519L111.874 89.9501L112.433 91.8327L113.676 94.0223L114.522 97.1251L113.983 100.022L113.337 100.505L112.032 97.6955L111.745 95.3201L110.486 93.0248L108.843 91.7609L106.32 90.5045L104.83 89.6404L103.607 89.5499L102.366 89.8883L101.163 90.5198L99.33 91.5884L97.6726 91.9124L92.8824 93.6764L90.8384 92.8861L85.6916 92.7732L81.1304 93.2419L79.0179 93.916L74.3982 96.7075L73.8567 97.3353L71.4073 98.4002L70.2238 99.018L66.3439 98.1373L65.2235 97.661L63.8922 97.225L61.6925 98.2755L59.8741 99.2567L58.5007 99.8639L57.4055 100.397L56.1686 100.18L54.4015 100.187L53.6082 100.078L52.6655 99.6703L51.9271 99.3015L51.386 99.6005L50.6974 100.017L49.4138 100.893L46.915 102.903L45.9152 103.947L44.541 105.265L43.3248 106.72L41.7839 108.454L40.5314 110.084L37.9779 115.246L37.5466 115.64C37.5466 115.64 35.817 115.098 35.7182 115.097C35.6195 115.096 34.3782 114.875 34.3782 114.875L34.0035 114.422L33.5934 112.989L33.8219 110.797L33.4062 109.566L33.3269 108.326L34.266 106.35L36.2246 103.093L41.4724 96.7856L44.1208 94.3536L47.9697 92.3672L50.2507 91.693L51.8707 91.2526L53.1474 90.7842L55.3238 88.9173L56.8416 87.317L58.2214 87.0753L61.0747 86.8027L63.6251 86.8814L66.166 86.7758L67.3659 86.7694L67.8082 86.6915L70.2168 85.4076L74.2269 83.545L75.4015 82.7512L78.3466 81.218L82.0118 80.9184L91.4797 79.7047L92.5136 78.0087L89.582 77.7773L85.8637 77.3039L81.5698 78.3859L80.3903 78.9458L78.9807 77.5619L72.7608 79.2261L64.5031 79.2938L56.2828 79.478L53.5978 81.3043L51.1679 81.9114L42.086 84.4531L38.6659 84.5661L33.9396 84.5249L32.3343 85.4986L27.7499 87.8229L25.8663 88.5336L24.8747 90.1895L23.7224 92.5644L20.4899 96.2153L16.6982 100.088L14.3511 100.147L12.8891 98.4419L11.273 96.7649L10.884 95.618L10.5211 92.4877L10.5526 90.356L10.7946 87.6785L12.2112 83.3191L17.2162 76.006L18.3826 73.0998L19.1454 71.8513Z" fill="#FF5440"/>
</svg>
