<svg width="142" height="139" viewBox="0 0 142 139" fill="none" xmlns="http://www.w3.org/2000/svg">
<path d="M115.353 108.992L114.165 125.948L112.005 125.876L112.545 117.956L106.749 118.172L107.289 125.876L105.129 125.948L103.941 109.028L106.101 108.848L106.605 116.012L112.689 115.796L113.193 108.812L115.353 108.992ZM90.441 111.728L101.169 111.044L101.205 112.556L98.109 117.488L101.529 127.964L99.369 128.612L96.525 120.008L92.925 125.804L91.269 124.688L98.505 113.204L90.621 113.816L90.441 111.728ZM94.833 103.592L98.541 108.38L96.813 109.676L93.105 104.888L94.833 103.592ZM130.041 117.704L130.113 125.696L141.021 125.264V127.424L117.729 128.288V126.128L127.953 125.768L127.881 117.704H130.041ZM131.589 106.364L128.637 111.26L137.385 116.624L136.233 118.496L127.485 113.204L123.345 120.044L121.437 118.964L129.717 105.32L131.589 106.364Z" fill="black"/>
<g clip-path="url(#clip0_4_391)">
<path opacity="0.6" d="M87.0435 109.331L82.193 110.325L81.457 112.419L75.3298 116.203L67.7745 117.752C67.7745 117.752 64.98 119.298 63.6705 118.593C62.3611 117.888 58.0479 117.725 58.0479 117.725L54.982 114.151L48.0322 105.854L39.5471 96.7032L33.9518 90.2669L33.2637 86.9094L30.8257 84.493L26.1482 82.5356L20.0355 77.3703L19.5766 75.1309L18.2983 73.6419C16.1662 72.7185 13.3566 71.348 13.3566 71.348L12.8592 68.9212L11.581 67.4322L10.7644 63.4478C10.7644 63.4478 11.8925 62.3142 12.0382 61.1193C12.1839 59.9244 12.2296 62.0532 12.1807 59.925C12.1318 57.7969 8.52278 52.5092 8.52278 52.5092C8.52278 52.5092 8.92489 50.6758 8.99775 50.0784C9.07061 49.4809 9.14024 48.8841 9.02501 48.3218C8.90978 47.7595 5.17114 42.6937 5.17114 42.6937L5.93105 34.1772L8.37072 29.0103L13.4086 27.9779C13.4086 27.9779 16.1687 27.217 16.984 25.4942C17.7994 23.7715 18.2823 23.2853 18.9136 22.57C19.5448 21.8548 21.153 22.1111 21.153 22.1111L25.3934 20.9828C25.3934 20.9828 27.1521 19.1308 27.1832 17.3768C27.2144 15.6228 24.6907 19.4432 27.2105 15.6203C29.7302 11.7973 30.767 11.2043 30.767 11.2043L35.1002 11.4814C35.1002 11.4814 37.0136 13.2274 38.2086 13.3731C39.4035 13.5189 40.75 13.4349 41.2706 13.1329C41.7913 12.8309 42.5344 11.7088 42.5344 11.7088L43.683 9.72249C43.683 9.72249 44.8395 9.68078 45.4396 9.74975C46.0396 9.81872 48.4639 9.32527 48.4639 9.32527L53.259 8.53789L56.144 6.0038L59.2868 7.11069L58.8847 8.94404C61.3877 8.81832 62.6171 8.17916 63.4019 8.21361C64.1868 8.24806 66.2766 8.01174 66.2766 8.01174C66.2766 8.01174 68.4087 8.93515 68.1516 9.57036C67.8946 10.2056 68.4848 9.30677 67.8946 10.2056C67.3043 11.1044 67.1825 9.57365 67.3011 11.105C67.4196 12.6364 68.1934 13.0603 69.006 13.4763C69.8185 13.8923 72.9958 14.2143 72.9958 14.2143C72.9958 14.2143 75.1663 15.3252 74.3118 15.8875L73.4541 16.4505C73.4541 16.4505 74.7737 19.2914 75.3762 19.7504C75.9787 20.2095 79.6077 21.7993 79.6077 21.7993L80.564 26.4656C80.564 26.4656 81.276 27.0975 81.88 28.1387C82.4808 29.1807 84.3253 31.5267 84.3253 31.5267C84.5584 33.6172 83.9265 34.3292 84.0417 34.8915C84.1569 35.4537 87.046 38.1649 87.7236 39.5817L88.4011 40.9985C88.4011 40.9985 90.3041 40.8038 90.0888 42.5955L92.6565 48.4872L94.3008 56.511L98.1741 62.1351L104.522 93.109L103.356 95.9642L102.825 98.1236L101.83 100.856L99.9689 102.211L95.3555 106.268L91.3661 107.668L87.0402 109.332L87.0435 109.331Z" fill="#76AC53"/>
<path d="M93.9616 101.799L96.6317 98.7092C96.6317 98.7092 98.0088 97.9859 98.0697 97.0508C98.1306 96.1157 99.8799 91.3428 99.8799 91.3428C99.8799 91.3428 99.9771 88.3665 99.7446 85.9999C99.5122 83.6332 98.8842 84.9068 99.0447 82.5842C99.2051 80.2616 98.1932 78.1826 97.4654 74.648C96.7377 71.1135 96.9486 72.471 96.5836 70.1315C96.2187 67.792 96.9414 69.314 96.2187 67.792C95.496 66.27 96.9228 66.6274 95.5893 63.85C94.2558 61.0726 94.3061 61.3182 93.4433 59.5892C92.5806 57.8602 89.4933 53.4589 88.2765 51.6947L87.0596 49.9304L83.5271 44.8022C82.9421 43.9523 82.5611 44.7712 82.5884 43.4422C82.6158 42.1133 80.7633 43.9678 80.4316 40.3116C80.0999 36.6555 79.3213 36.3066 79.5244 35.8845C79.7274 35.4624 75.9258 24.4697 75.9258 24.4697L68.4063 21.1316C68.4063 21.1316 67.5202 19.5353 66.9212 19.2742C66.3222 19.0131 61.8672 16.4982 61.8672 16.4982C61.8672 16.4982 62.4723 15.7378 61.4924 14.6692C60.5124 13.6006 59.9993 13.5778 59.4057 12.5546C58.8122 11.5314 59.744 11.7243 57.2042 11.7363C54.6645 11.7483 50.761 12.0398 50.761 12.0398C50.761 12.0398 49.2946 12.2124 48.221 12.5603C47.1475 12.9083 40.3966 15.3087 40.3966 15.3087C40.3966 15.3087 40.129 15.2355 39.0327 16.0966C37.9363 16.9577 36.7929 17.5725 36.7929 17.5725C36.7929 17.5725 35.7942 18.2856 34.6256 18.7777C33.457 19.2697 33.3269 18.0269 30.7991 20.5787C28.2714 23.1305 24.435 27.3479 24.435 27.3479C24.435 27.3479 21.6398 29.8266 20.7639 30.5145C19.8879 31.2025 18.96 31.0121 18.2337 32.4304C17.5075 33.8487 15.3701 36.4484 15.3701 36.4484C15.3701 36.4484 14.521 37.8919 14.5518 38.6499C14.5826 39.408 14.489 40.8245 14.4466 41.8501C14.4043 42.8757 14.4987 42.7284 14.266 44.6819C14.0333 46.6354 13.3044 48.0576 13.3044 48.0576L14.5844 50.5901C14.5844 50.5901 13.4044 50.7141 13.2061 51.0611C13.0079 51.4081 12.0842 53.9006 12.0842 53.9006L13.659 61.5851C13.8338 62.4382 13.5362 61.6103 13.8338 62.4382C14.1314 63.2662 16.0519 69.4824 16.7947 70.3471C17.5376 71.2117 16.5342 70.653 17.5376 71.2117C18.5411 71.7705 19.9391 73.0059 20.2815 73.4442C20.6238 73.8825 23.4146 76.3276 23.4146 76.3276C25.9455 78.1289 30.5752 82.4162 30.5752 82.4162C30.5752 82.4162 29.5672 84.1851 30.8154 84.5085L32.0668 84.8312L37.5207 88.7206L38.2834 89.9617L39.3438 92.0307C39.3438 92.0307 41.6477 93.9728 41.9681 94.2877C42.2885 94.6025 46.9066 100.394 48.0265 100.289C49.1465 100.184 57.399 104.47 61.2187 106.99L65.0384 109.511L73.767 108.611L84.4387 104.77L92.3824 103.015L93.959 101.803L93.9616 101.799Z" fill="#BCCE55"/>
<path opacity="0.8" d="M27.7909 29.4449L25.9391 30.3329L22.7462 31.4956L21.9954 32.7943C21.9954 32.7943 24.7604 33.881 24.2496 34.4941C23.7389 35.1073 22.7001 37.4819 22.3595 37.6763C22.0188 37.8707 21.5641 40.6138 21.5641 40.6138L17.6605 41.4138C17.6605 41.4138 17.9627 42.2644 18.0644 43.385C18.1661 44.5057 17.5461 47.0504 18.5536 48.8777C19.5611 50.705 20.9078 51.0655 19.9564 51.385C19.005 51.7046 17.4994 53.0334 17.4994 53.0334L17.8491 54.7396C17.9742 55.3504 19.7398 57.1469 19.9381 57.4901C20.1364 57.8334 21.4564 58.7043 21.4564 58.7043L21.0009 60.1951C21.0009 60.1951 20.1501 61.0058 21.1333 62.0738C22.1165 63.1417 22.9972 63.7256 23.1948 64.0656C23.3924 64.4056 23.712 65.357 23.7428 66.115C23.7735 66.8731 22.7537 68.732 23.8296 69.02C24.9055 69.3079 29.096 72.3888 29.2212 72.9996C29.3464 73.6103 29.2285 74.2675 29.2285 74.2675C29.2285 74.2675 29.1978 74.7418 29.3269 75.372C29.456 76.0021 30.2025 76.5394 30.575 76.5001C30.9474 76.4608 32.9381 79.3561 32.9381 79.3561L32.5569 80.5353L36.1469 84.5474C36.9845 85.5947 38.3426 87.2929 38.5502 87.55C38.7578 87.8072 37.7383 86.9891 38.9613 88.2907C40.1843 89.5924 42.4373 92.4036 42.4373 92.4036C42.4373 92.4036 43.7535 94.932 43.9763 95.3948C44.1991 95.8576 47.6332 99.6019 48.0285 100.282C48.4237 100.962 49.0366 102.096 49.7825 102.647C50.5284 103.197 53.7294 105.787 54.654 105.945C55.5785 106.102 61.2524 108.371 61.5931 108.176C61.9338 107.982 68.0617 107.487 69.032 106.652C70.0023 105.816 84.7588 102.159 84.7588 102.159C84.7588 102.159 88.3225 101.557 88.6625 101.359C89.0025 101.162 91.0627 98.6451 91.4419 98.4091C91.8212 98.1732 91.1902 98.8075 91.8205 98.1699C92.4509 97.5323 93.6627 95.3781 93.6627 95.3781C93.6627 95.3781 94.8494 93.1011 94.6997 92.3708L94.3746 90.7842C94.3746 90.7842 94.0608 86.1478 93.9105 85.4143L93.4357 83.0973C93.4357 83.0973 91.6678 80.6648 91.3678 79.201C91.0678 77.7371 91.8289 78.3455 90.8426 76.6384C89.8564 74.9313 89.6342 74.4717 89.2138 73.6689C88.7934 72.8662 88.5031 73.3062 88.0338 71.6244C87.5646 69.9427 87.9362 71.7724 87.5614 69.9434C87.1866 68.1143 87.2694 69.7507 87.0614 67.5036L86.8541 65.2597C86.8541 65.2597 85.9986 64.7986 85.9238 64.4335C85.849 64.0683 85.0751 62.9541 85.0751 62.9541C85.0751 62.9541 83.0468 60.3191 82.5516 59.1511C82.0563 57.9832 80.8488 55.18 80.8488 55.18L80.0399 50.6081C80.0399 50.6081 79.3413 50.9129 78.9957 50.4752C78.6501 50.0376 76.6895 47.8972 75.456 45.6077C74.2257 43.3176 73.3898 42.3441 73.3898 42.3441C73.3898 42.3441 73.5394 43.0744 72.479 41.0054L71.4186 38.9363L70.4886 36.2547C70.4886 36.2547 71.2865 33.4446 70.6755 32.5495C70.0644 31.6545 69.0611 30.1765 68.4097 29.2156L67.2624 27.5281C66.2878 26.0913 66.0716 24.0177 66.0716 24.0177L62.8822 20.8596C62.8822 20.8596 58.8689 19.2678 58.4289 18.9774L57.9889 18.6871L55.3173 18.5982L54.3253 18.8015C54.3253 18.8015 53.3018 18.3749 52.0784 18.501C50.855 18.6271 47.771 18.8753 47.771 18.8753L46.2683 19.1832C46.2683 19.1832 36.3376 20.3294 35.8017 20.8197C35.2658 21.31 34.8778 21.898 34.3206 22.2681C33.7634 22.6381 27.7858 29.4527 27.7858 29.4527L27.7909 29.4449Z" fill="#F5E692"/>
<path opacity="0.8" d="M35.6128 41.5701L34.2066 43.3836C34.2066 43.3836 35.4345 45.0378 35.5093 45.403C35.5842 45.7681 36.6386 48.3502 36.6386 48.3502L36.8638 49.4489C36.8638 49.4489 37.6255 51.835 37.4637 52.3766C37.302 52.9182 37.8027 53.3241 38.0637 55.3044C38.3248 57.2846 38.8385 59.0852 38.8385 59.0852L41.2706 64.0518L39.8625 64.805L42.5447 70.2692C42.5447 70.2692 43.225 72.8 43.1447 73.1969C43.0644 73.5938 41.9708 72.168 43.6125 75.1348C45.2543 78.1016 46.0478 80.1007 46.4934 81.0263C46.939 81.9519 48.2417 83.9712 49.0297 85.3351C49.8176 86.699 50.6781 87.7921 50.6781 87.7921C50.6781 87.7921 51.9069 88.8097 52.2861 89.1158C52.6654 89.422 53.8909 90.4403 53.8909 90.4403C53.8909 90.4403 55.484 92.0196 55.3165 92.4345C55.149 92.8493 56.0236 95.7207 56.0236 95.7207C56.0236 95.7207 57.661 99.5369 58.5558 99.5657C59.4506 99.5945 60.1492 100.522 60.1492 100.522L61.1581 103.046C61.1581 103.046 62.7079 103.692 63.0688 104.22C63.4297 104.749 63.7501 105.064 64.2381 104.964C64.726 104.864 71.6672 104.509 71.6672 104.509C73.1237 104.288 80.3666 103.056 80.3666 103.056L84.1672 99.8966C84.1672 99.8966 87.4787 99.3123 88.8174 98.4015C90.1561 97.4908 90.6668 96.8777 90.6668 96.8777C90.6668 96.8777 90.9066 96.7005 90.7863 95.3413C90.666 93.982 89.3424 90.4147 89.0447 89.5867C88.7471 88.7588 88.7047 89.7843 88.2071 87.9805C87.7095 86.1766 87.2443 85.7635 87.1168 84.5168C86.9899 83.2734 88.5451 85.0457 87.2456 79.7561C85.9461 74.4666 85.4079 74.321 85.573 73.2702C85.7382 72.2195 84.7307 70.3922 84.7307 70.3922C84.7307 70.3922 84.0632 69.7309 83.3296 68.5175C82.5961 67.3041 82.785 67.454 81.9808 65.649C81.1765 63.844 80.0983 61.4251 79.6288 60.3663C79.1592 59.3076 78.0014 60.4271 78.2269 57.2224C78.4517 54.0146 78.3289 54.0397 77.962 53.4819C77.5951 52.924 76.121 51.3169 76.121 51.3169C76.121 51.3169 74.5905 50.8157 74.0163 49.903C73.442 48.9903 68.4604 47.4218 68.1399 47.107C67.8195 46.7922 67.5772 46.8418 67.0868 46.3059C66.5965 45.77 62.5912 45.4493 62.2432 44.3758C61.8953 43.3023 61.8456 43.0599 61.526 42.1085C61.2065 41.1571 60.328 39.8118 59.5011 38.9643C58.6742 38.1169 55.9897 38.0306 54.9089 37.1106L53.8306 36.1868C53.8306 36.1868 53.3678 36.4095 52.4627 35.7061C51.5575 35.0026 52.5878 36.3168 51.5575 35.0026L50.5272 33.6884L46.2315 33.8078L37.8167 35.5322C37.8167 35.5322 36.7912 35.4899 36.6985 36.2698L36.5105 37.8337C36.5105 37.8337 37.0333 39.7604 35.6238 41.5746L35.6128 41.5701Z" fill="#F5E692"/>
<path opacity="0.4" d="M53.3155 72.7625L52.9903 71.1758C52.9406 70.9334 54.0271 70.0407 54.0271 70.0407C54.0271 70.0407 53.3206 69.0743 53.0978 68.6115C52.8751 68.1487 52.4123 68.3715 52.2374 67.5184C52.0626 66.6653 51.5243 66.5197 51.1071 65.7163C50.6899 64.9128 51.3316 66.8117 50.3437 64.4719C49.3557 62.1322 49.4809 62.7429 48.9889 61.5743C48.4969 60.4057 48.4986 61.0384 47.8334 59.6494C47.1683 58.2603 47.8106 60.1625 47.1683 58.2603C46.5259 56.3582 44.8764 58.8579 46.5259 56.3582L48.1754 53.8584C48.1754 53.8584 48.6885 53.8812 48.4137 52.5401C48.1388 51.1991 48.3812 51.1494 47.5485 50.1752C46.7158 49.201 45.5367 48.4257 45.5367 48.4257C44.6008 46.9642 44.7967 46.6715 44.6692 45.4249L44.5423 44.1814L45.6354 43.321L48.2885 42.7773L50.907 43.0017C52.4733 43.8256 54.1616 44.6211 54.1616 44.6211L56.0483 45.7598L58.9784 45.7957L59.9835 46.9871C59.9835 46.9871 58.9652 48.2127 59.6979 48.6989C60.4306 49.1852 64.3992 51.1667 64.3992 51.1667L65.5053 52.2263L65.7768 53.5512C65.7768 53.5512 67.9886 56.2766 68.183 56.6172C68.3774 56.9579 69.1881 57.8086 69.1881 57.8086C69.1881 57.8086 69.8509 58.5617 70.6365 59.2897C71.4221 60.0176 74.2642 62.1054 74.2642 62.1054L74.6139 63.8116L76.3871 65.4484C76.3871 65.4484 76.6617 67.84 77.0434 68.6508C77.425 69.4615 78.9757 72.0664 78.9757 72.0664C79.9637 74.4062 80.4865 76.3329 80.4865 76.3329L81.8109 82.7959C82.3029 83.9645 83.4657 87.1574 83.4657 87.1574L84.2405 90.9382L83.2915 91.8937L81.1117 95.519C81.1117 95.519 80.9693 96.0567 80.1381 96.3549C79.307 96.6532 77.7113 96.8523 77.7113 96.8523L76.0149 96.6915L74.2242 94.7721L72.2034 91.9436C72.2034 91.9436 72.2286 93.0193 70.8375 92.1629C69.4464 91.3065 68.3265 91.0175 68.3265 91.0175C68.3265 91.0175 65.8777 90.0276 64.9697 89.9342C64.0616 89.8409 63.8142 88.0093 63.8142 88.0093L63.3662 86.4478L53.3161 72.7489L53.3155 72.7625Z" fill="#FEFDEE"/>
<path d="M71.6677 104.512L64.3503 97.2635C64.3503 97.2635 51.2317 79.7318 51.1171 79.1728C51.0026 78.6137 40.9733 59.0852 40.9733 59.0852L41.2664 50.0819L42.4803 56.9581L52.0783 77.2249L56.59 83.1054L72.1947 100.905L61.0104 85.698L55.3618 74.0232L55.2695 69.9577L63.9195 84.7113L70.7027 93.6248L75.1836 101.737L77.7946 101.202L72.206 91.9564L69.3611 87.0946L67.7936 79.4457L67.9418 74.9437L70.0027 84.0472L71.3266 87.665L73.9632 91.9869L78.9995 98.5377L82.0199 97.141L78.362 89.7251L73.2952 84.9315L72.4814 79.0709L72.4213 74.0291L74.4717 81.1918L75.9407 83.6115L79.8789 86.6935L81.6194 91.391L79.0716 81.8014L73.2216 69.3901L65.2922 59.1557L53.6161 46.7732L66.9277 57.6555L74.5582 67.3685L78.6711 76.0515L84.5012 92.1608L84.8295 98.5114L86.8214 93.0491L85.7706 84.1258L77.029 60.4477L67.6156 44.8774L59.7136 32.8865L52.9585 26.4926L63.1472 32.5701L77.2983 55.1397L81.9813 65.652L90.0729 87.3252L90.7901 95.3437L92.7252 85.8085L88.2128 63.7891L76.8819 45.5005L65.8226 29.4897L59.508 21.4499L66.2903 26.0873L71.8584 34.2801L82.1811 48.8155L86.8207 56.9965L90.8031 66.9487L97.2146 87.8011L96.0221 96.211L99.885 91.3349L96.2231 67.7809L89.3551 53.2446L80.4354 40.2973L75.144 25.6332L66.9271 17.7913L77.4182 25.5578L83.8877 41.7313L90.8799 51.188L94.3504 58.6422L97.6679 65.35L104.522 93.1121L101.267 99.9681L92.55 105.772L87.3367 108.15L82.134 109.216L79.653 112.62L75.1386 115.32L66.5493 117.08L58.3842 114.174L35.7442 90.7816L30.5693 82.4038L27.0366 79.2959L15.7319 62.433L12.4585 49.204L17.6126 62.0476L27.377 75.502L34.2636 82.2091L42.4269 92.4022L50.309 100.319L30.9006 73.5542L27.5343 67.6107L22.0936 56.1121L19.1152 41.1188L24.7514 56.315L30.588 67.921L35.6451 74.3598L45.3837 87.6882L52.9338 97.6333L57.1161 101.167L61.1457 103.052L48.0094 85.4666L43.2286 76.7285L37.3936 65.5902L29.985 51.7843L28.439 39.6728L32.1064 52.0971L39.8495 64.8075L47.4149 77.5542L53.943 87.5235L62.6379 99.8502L67.7782 104.871L71.6555 104.518L71.6677 104.512Z" fill="#FEFDEE"/>
<path opacity="0.8" d="M54.5501 51.9223L52.3367 55.6791L54.1431 57.2148L52.9367 58.6069L55.0682 61.7292L57.3997 65.8274L57.9494 68.5096C57.9494 68.5096 59.1117 69.4162 59.3061 69.7569C59.5005 70.0975 59.7061 71.7087 59.7061 71.7087C59.7061 71.7087 61.5495 74.5096 61.6243 74.8747L62.4991 79.1435L64.2402 80.8205L65.4761 83.7459L66.9788 86.7412L68.8141 92.591L71.4169 97.1421L71.8168 99.0939L73.9208 102L77.0791 105.006L80.3679 103.062C80.3679 103.062 82.3174 102.027 82.2426 101.661C82.1677 101.296 81.3318 100.323 81.8426 99.7095C82.3533 99.0964 81.2105 98.4653 82.0174 97.145C82.8243 95.8246 82.07 93.0969 81.6169 91.395C81.1637 89.6932 80.9596 89.6172 80.4177 88.1557C79.8757 86.6943 78.5878 87.5408 78.1698 87.3739C77.7517 87.207 76.0911 86.5304 75.9911 86.0425C75.8911 85.5545 75.9382 83.6155 75.9382 83.6155C75.9382 83.6155 77.0494 83.1554 76.507 81.7412C75.9647 80.327 75.915 80.0847 75.4214 79.5494C74.9279 79.0141 75.1358 81.2612 73.7228 76.8468C72.3097 72.4324 72.6552 72.8701 71.82 71.8997C70.9848 70.9294 72.1372 72.2152 70.9841 70.9262C69.831 69.6372 69.4275 72.0062 68.5071 68.7636C67.5899 65.5204 68.0048 65.6879 67.3168 64.812C66.6289 63.9361 65.1493 64.6198 64.5184 63.4797L63.8874 62.3395C63.8874 62.3395 64.2926 60.6032 61.7691 58.1976C59.2457 55.792 59.8556 56.3034 58.2894 55.4795C56.7232 54.6556 56.2898 54.3976 55.9906 54.1862C55.6913 53.9748 55.1004 54.6077 54.825 53.2634L54.5501 51.9223V51.9223Z" fill="#F7DE77"/>
</g>
<defs>
<clipPath id="clip0_4_391">
<rect width="87.2163" height="112.23" fill="white" transform="matrix(-0.979641 0.200759 0.200759 0.979641 85.4407 0)"/>
</clipPath>
</defs>
</svg>
