<svg width="236" height="277" viewBox="0 0 236 277" fill="none" xmlns="http://www.w3.org/2000/svg">
<g clip-path="url(#clip0_570_2096)">
<path d="M41.8904 160.894L53.2357 135.481L64.5809 113.917L69.8042 107.795L73.8877 99.6218L78.4271 91.2269L85.233 81.6987L93.1786 70.5748L103.82 55.374L108.835 49.0175L114.508 42.7913L119.953 36.5325L121.998 33.1328L124.043 34.0381L126.524 34.7219L127.898 42.7913L132.666 57.4125L135.16 72.1639L136.749 75.7981L139.016 86.4595L142.878 103.484L144.688 108.701L146.277 116.19L147.417 128.447L149.684 141.154L153.995 167.479L155.812 174.284V180.641V184.724L153.539 187.903L150.139 191.758L145.6 193.126L139.471 190.169L126.524 188.131L109.291 183.591L94.3118 177.691L83.4159 176.785L60.9533 174.063H56.8633L50.9627 173.607L46.2018 172.474L44.6127 164.3L41.8904 163.167V160.894Z" fill="#0BE600"/>
<path d="M104.752 2.04053L109.063 4.53492L113.83 10.4355L117.914 17.7363L121.092 24.2817H123.815L125.404 26.0271H127.442L136.521 19.7423L148.55 14.0371L159.895 9.98613L166.48 9.30228L155.812 8.84639L147.417 9.07434L135.616 7.25727L126.524 5.8961L114.508 3.17375L104.752 2.04053Z" fill="#0BE600"/>
<path opacity="0.8" d="M129.26 33.1328L146.733 44.706L155.812 49.2454L168.519 56.2793L181.681 66.7193L190.76 73.4014L201.656 84.421L213.001 98.0327L220.491 106.434L229.791 117.552L234.786 123.68L235.919 130.037L230.703 134.12L224.802 141.382L212.317 148.416L202.105 154.088L193.026 159.084L184.859 166.345L175.78 174.74L165.568 183.363L155.812 184.724L154.451 178.147L145.828 133.892L143.555 116.646L140.377 102.344L135.616 78.2925L132.21 65.3581L129.26 52.1957L126.524 39.7107V34.7219L128.126 33.1328H129.26Z" fill="#FF0000"/>
<path opacity="0.8" d="M101.964 0.633789L89.2318 7.98021L80.902 11.9009L74.5325 14.0371L68.8989 15.0857L63.2653 17.7364L55.678 20.7192L44.8993 24.8809L38.2888 27.3297L68.1695 20.2308L87.7599 21.4487L107.598 24.6334L118.377 27.3297H120.33L122.05 26.0271V20.4717L112.743 6.01986L106.934 2.29455L101.964 0.633789Z" fill="#FF0000"/>
<path opacity="0.8" d="M131.624 29.5244V33.1325H128.126L137.765 38.7661L151.24 48.0989L169.691 60.4797L186.885 72.1766L204.313 91.4415L223.806 113.129L235.457 127.451L235.919 126.526L231.829 111.162L232.982 95.7985L230.455 80.6628L229.309 65.0712L231.373 55.8947L229.309 53.1463L210.051 42.791L191.932 35.4901L172.439 33.1325L145.385 30.4427L131.624 29.5244Z" fill="#006EFF"/>
<path opacity="0.8" d="M35.3123 28.6062L30.037 41.6773L22.7036 56.813L14.4454 68.0476L9.86036 77.4521L0 84.5575V86.6221L33.0198 63.6905L53.8868 52.9184L90.5798 40.9935L116.95 31.589L120.389 29.5245L119.015 28.6062L118.376 27.3297L86.6787 20.1265L74.9817 17.7363H69.2505L61.865 18.2899L46.5469 24.0212L35.3123 28.6062Z" fill="#006EFF"/>
<path opacity="0.8" d="M1.15928 89.1362L0 91.5264L1.15928 94.112L3.34757 102.865L9.91246 112.016L22.2477 130.916L25.8297 142.254L31.3981 153.991L35.9766 161.747H39.3568H41.8902L53.6784 139.864L62.0343 121.563L73.373 103.66L78.948 95.903L87.102 81.1776L96.8516 68.8423L104.752 57.1063L115.348 42.7912L119.952 36.5324L124.043 34.038L121.118 33.1327L120.389 30.6514L105.403 33.1327L86.3074 39.9972L67.0101 44.973L51.4901 52.1826L40.3532 58.7019L22.645 68.0478L9.70405 79.8815L2.91773 84.5968L0 86.6222L1.15928 89.1362Z" fill="#FFE600"/>
<path opacity="0.8" d="M127.442 26.0273L130.471 28.2612L133.069 29.6223H141.015L154.802 31.3808L175.233 35.8225L192.935 38.0108L212.629 46.764L224.164 50.3786L231.373 55.8949L210.239 39.4045L196.12 30.6514L183.986 21.6963L176.62 14.936L172.843 12.1485L164.077 9.19824L154.542 10.3575L144.994 13.9851L134.45 17.7365L127.442 26.0273Z" fill="#FFE600"/>
<path opacity="0.8" d="M124.303 23.9692H120.936L118.832 26.0273L116.735 27.3298L117.269 29.707L119.497 31.3091L120.519 32.7354L121.633 33.758H121.9L123.502 34.3702L125.241 35.4969H125.554H126.264L128.126 34.1096L129.012 34.0185L129.416 34.1096L130.536 33.3802L131.558 33.4453L132.939 32.5466L132.985 28.0202L130.673 26.0273L127.24 24.7247L126.172 24.9006L124.303 23.9692Z" fill="#006EFF"/>
</g>
<path d="M18.6983 230.878L14.3608 241.605L31.4764 251.98L29.7179 255.028L13.0126 244.946L9.31986 254.031L6.03742 252.859L15.4158 229.647L18.6983 230.878ZM42.0857 225.837L44.02 253.562L40.5031 253.679L38.5688 226.13L42.0857 225.837ZM47.9586 226.423L65.4259 225.31L65.4845 227.771L60.7367 235.333L65.6018 250.28L62.3193 251.218L58.3335 239.201L52.0031 249.342L49.3068 247.525L61.0884 228.827L48.2517 229.823L47.9586 226.423ZM75.4491 221.382L76.2111 229.882L86.9377 229.413L87.0549 232.93L76.5628 233.399L78.0868 249.752L74.5699 249.869L71.9322 221.676L75.4491 221.382ZM72.5184 252.859L73.2217 263.761L69.5876 263.878L68.9428 253.152L72.5184 252.859ZM118.015 228.768L119.949 256.493L116.432 256.61L115.495 243.656L103.127 244.301L102.834 240.784L115.26 240.081L114.498 229.061L118.015 228.768ZM129.855 229.002L127.921 256.61L124.404 256.493L126.338 228.709L129.855 229.002ZM98.4963 238.322L99.1997 249.225L95.5655 249.342L94.9208 238.615L98.4963 238.322ZM176.881 219.976L177.818 234.571L188.369 234.102L188.486 237.619L178.053 238.088L179.518 259.424L176.001 259.541L173.364 220.269L176.881 219.976ZM167.268 229.354L163.165 253.797L159.648 253.21L162.989 233.105L149.566 233.926L149.449 230.351L167.268 229.354ZM191.839 225.779L205.555 224.724L204.5 248.814H193.011L191.839 225.779ZM224.663 220.796L227.242 249.166L223.726 249.283L223.198 243.773L208.427 244.711L208.134 241.194L222.905 240.257L222.026 230.819L207.841 231.816L207.548 228.299L221.733 227.361L221.146 221.089L224.663 220.796ZM212.765 249.459L212.296 261.534H227.418V265.051H208.661L209.248 249.225L212.765 249.459ZM196.47 245.297H201.1L201.862 228.475L195.414 229.12L196.47 245.297Z" fill="black"/>
<defs>
<clipPath id="clip0_570_2096">
<rect width="235.919" height="192.485" fill="white" transform="translate(0 0.633789)"/>
</clipPath>
</defs>
</svg>
