<svg width="185" height="190" viewBox="0 0 185 190" fill="none" xmlns="http://www.w3.org/2000/svg">
<g filter="url(#filter0_d_1_383)">
<rect x="8" y="13.0004" width="165" height="165" rx="5" fill="white"/>
</g>
<path d="M81.0269 127.408L91.7549 126.724L91.7909 128.236L88.8749 132.88L91.8629 142.06L89.8469 142.636L87.3989 135.256L83.5109 141.484L81.8549 140.368L89.0909 128.884L81.2069 129.496L81.0269 127.408ZM102.051 124.312L103.671 141.736L101.511 141.808L100.647 132.664L92.0789 133.24L91.8989 131.08L100.431 130.504L99.8909 124.492L102.051 124.312ZM97.9109 143.644L98.3429 150.34L96.1109 150.412L95.7149 143.824L97.9109 143.644ZM129.814 135.184L124.198 135.4L124.306 140.656H122.146L122.038 135.472L114.154 135.76L114.262 141.016H112.102L111.994 135.868L106.522 136.048V133.888L129.814 133.024V135.184ZM108.43 142.564H124.702L124.054 152.68L121.858 152.608L122.398 144.724H108.43V142.564ZM118.582 123.34L118.798 129.244L116.638 129.28L116.422 123.52L118.582 123.34ZM138.749 139.756L151.709 139.252L151.025 153.256H139.613L138.749 139.756ZM141.629 151.096H148.937L149.405 141.484L141.053 141.88L141.629 151.096ZM131.441 123.088L142.169 122.404L142.205 123.916L139.289 128.56L142.277 137.74L140.261 138.316L137.813 130.936L133.925 137.164L132.269 136.048L139.505 124.564L131.621 125.176L131.441 123.088ZM152.465 119.992L154.085 137.416L151.925 137.488L151.097 128.704L142.493 129.28L142.313 127.12L150.881 126.544L150.305 120.172L152.465 119.992Z" fill="black"/>
<path opacity="0.8" d="M62.9153 77.4619L49.345 64.2406L46.1631 54.7305L48.6328 46.0083L51.8356 42.7157L49.1418 48.3891L48.4646 51.4043L50.4863 56.4868L52.8124 55.6449L59.3243 53.2198L64.3316 49.2419L67.3809 48.6287L72.9222 48.5536L82.4077 51.204L89.4912 52.0683L96.5025 51.6403L102.683 53.2363L108.345 55.7385L112.861 57.4964L116.489 57.6378L119.269 58.2705L120.052 59.7917L122.343 59.5684L124.448 59.9269L127.992 60.7403L133.968 65.0562L133.799 66.5843L126.032 64.2969L122.392 63.3906L116.449 61.7456L110.056 62.3069L104.339 63.1425L100.114 61.2871L94.2698 59.7402L89.5179 61.715L84.2655 61.4955L77.0536 62.9546L67.7312 68.2033L65.5658 70.4279L65.0067 71.7713L63.596 75.2949L63.5786 76.7871L62.9153 77.4619Z" fill="#FF5440"/>
<path opacity="0.8" d="M66.2463 79.0161L70.1125 75.0486L76.2762 71.6255L79.2213 70.3437L83.7868 68.9507L85.2152 68.8378L86.5722 70.154L90.4059 71.4432L96.0366 71.0826L97.5675 71.257L99.2113 72.8597L102.441 75.154L106.491 74.6723L110.679 73.4704L113.821 72.7608L116.702 73.8728L121.07 75.5783L125.632 77.4826L131.183 78.3644L134.703 77.648L139.088 77.0182L142.86 80.6935L143.966 84.7882L143.42 86.7044L143.26 89.1895L142.442 92.7358L139.507 94.5854L136.846 95.5754L130.432 94.4148L121.791 90.8997L116.051 90.0213L107.997 87.4472L100.98 84.0101L95.7327 84.3612L90.5567 82.71L83.2822 81.4679L78.886 81.3327L74.2926 80.6254L69.8845 79.5412L67.323 80.8133L66.2463 79.0161Z" fill="#FF5440"/>
<path opacity="0.8" d="M87.5377 26.7831L86.8317 26.8548L76.475 27.8847L71.2603 30.7225L70.313 31.6891L71.7665 33.0982L78.9994 34.5802L83.1647 35.5321L86.894 36.1528L90.9186 37.2466L94.5567 37.7717L97.6123 37.9261L103.276 40.2363L108.666 43.2219L116.348 46.7546L124.286 47.3219L129.938 48.8672L132.166 51.0377L136.436 52.9408L143.831 52.4177L147.465 52.5563L148.817 53.8752L147.779 54.9433L146.452 55.5355L146.084 56.6834L148.028 59.3298L147.274 60.1061L146.614 60.786L142.729 55.8666L139.944 54.6633L137.943 54.9734L133.915 53.6903L130.459 52.0129L128.236 50.2288L124.014 48.5628L121.442 49.2671L114.357 47.4483L110.988 45.6774L108.393 44.2786L105.507 42.5961L102.725 41.582L99.5746 39.8378L95.4555 40.9105L92.4826 40.0919L86.7327 38.2566L84.4169 36.5688L81.4473 35.9395L80.6178 35.5509L78.3567 35.1714L76.3863 34.9643L73.6421 34.5691L70.8981 34.0156L68.518 32.099L66.3132 31.6166L64.5813 32.302L62.8937 32.5814L64.4839 30.951L67.9226 29.4486L71.4386 28.1746L75.5683 27.3532L81.4729 26.7918L87.5377 26.7831Z" fill="#FF5440"/>
<path opacity="0.25" d="M88.2691 26.9417L97.8411 27.911L101.867 29.6896L105.204 30.6937L110.297 30.7159L112.882 31.1707L115.199 33.8727L118.441 34.6049L121.934 34.2395L126.344 37.0955C126.344 37.0955 128.219 38.2966 128.498 38.5679C128.776 38.8392 133.377 39.5489 133.377 39.5489L138.294 43.1722L142.19 45.4426L144.29 46.0477L145.981 46.5309L148.752 49.9501L149.464 52.3529L149.616 53.4895L146.656 53.3891L143.85 54.062L141.113 53.6432L138.515 53.6299L136.379 53.4332L133.865 52.5119L131.104 50.7086L128.998 49.7379L126.488 48.4584L124.34 47.7148L123.077 47.2309L120.793 47.9443L117.562 47.575L115.281 46.8303L109.998 44.2357L106.472 42.5034L103.192 40.618L100.155 39.5836L98.3705 38.9269L96.0953 38.5946L92.6771 38.1352L89.9987 37.6056L86.5087 36.3547L83.5782 35.8098L80.6311 35.2343L78.0955 34.6275L76.6708 34.2837L74.6709 34.0464L72.8255 33.6069L71.4453 33.1139L70.8456 32.5285L70.3288 32.0235L70.1166 31.6308L70.4934 31.2426L71.0964 30.6268L71.7152 30.3451L72.8233 29.7859L74.4271 28.8269L75.8055 28.1216L76.8529 27.6939L77.6812 27.5561L82.155 27.1154L82.9686 27.0844L84.4696 26.9718L85.2247 26.9789L85.972 26.9836L87.2181 26.8506L88.2691 26.9417Z" fill="#FF5440"/>
<path opacity="0.25" d="M64.347 31.6248L67.6897 31.2617L69.4092 32.3095L70.1342 33.4071L71.5772 34.1627L76.5396 34.8091L78.8861 35.2611L80.4939 35.4071L81.5841 35.7537L84.6141 36.4097L85.2847 36.8579L86.2016 37.6277L91.4537 39.5541L95.2461 40.8525L96.6898 40.2436L98.9864 39.6154L99.8981 39.8147L102.513 41.2024L106.276 42.813L110.8 45.2451L112.733 46.5662L115.165 47.3216L116.846 48.0671L119.195 48.6695L120.537 48.715L121.83 48.9852L124.003 48.1274L127.254 49.4482L129.167 50.1474L130.939 51.8784L132.384 52.6003L133.401 53.4344L136.018 54.228L137.306 54.5009L137.93 54.7171L138.93 54.8358L139.759 54.7109L140.31 54.5117L141.366 55.0878L142.653 55.506L143.478 56.3125L144.897 58.353L146.011 59.3786L146.444 60.0341L146.583 60.4733L147.763 65.4372L147.25 67.3291L146.494 69.1872L146.138 71.9301L145.727 76.5348L144.921 79.7383L144.57 81.529L144.422 83.4871L144.805 85.9757L144.492 89.1764L142.958 91.6922L142.182 91.9141L141.962 88.8237L142.539 86.5017L142.179 83.9087L141.093 82.1429L139.183 80.0713L138.097 78.7335L136.986 78.2137L135.706 78.0884L134.357 78.2506L132.264 78.5974L130.6 78.3105L125.495 78.2549L123.866 76.7892L119.096 74.8526L114.667 73.6679L112.453 73.5464L107.142 74.5117L106.413 74.9059L103.745 75.0296L102.419 75.1859L99.1061 72.9825L98.2284 72.1388L97.1394 71.2577L94.7098 71.4569L92.6613 71.727L91.1618 71.8058L89.9486 71.9145L88.8697 71.2718L87.2156 70.6499L86.5133 70.2649L85.7772 69.549L85.2183 68.9416L84.6062 69.0285L83.8144 69.1731L82.3032 69.535L79.2528 70.5244L77.947 71.1445L76.1936 71.8877L74.5395 72.8145L72.4827 73.8864L70.7323 74.9642L66.5091 78.8808L65.9659 79.0952C65.9659 79.0952 64.5424 77.9731 64.4504 77.9372C64.3585 77.9012 63.2769 77.2533 63.2769 77.2533L63.088 76.6964L63.2145 75.2111L64.2078 73.2443L64.2573 71.9457L64.6242 70.7589L66.2052 69.2455L69.1942 66.8987L76.3426 62.8709L79.683 61.5402L83.9868 61.0531L86.3584 61.2345L88.0291 61.3993L89.3889 61.4157L92.0871 60.4453L94.0749 59.4896L95.4505 59.7546L98.2141 60.515L100.57 61.4959L102.982 62.3011L104.105 62.722L104.547 62.8065L107.254 62.4636L111.665 62.1495L113.045 61.8254L116.343 61.4403L119.875 62.4642L129.155 64.6983L130.725 63.481L128.067 62.2218L124.761 60.4566L120.363 59.9402L119.061 60.0438L118.236 58.249L111.831 57.5915L104.09 54.717L96.3415 51.9646L93.1824 52.7162L90.6955 52.4192L81.3035 51.5635L78.067 50.4524L73.6645 48.7325L71.8179 49.0714L66.7065 49.6127L64.6933 49.6067L63.1774 50.8015L61.2557 52.6111L56.9358 54.8731L52.0143 57.1439L49.8 56.3634L49.0401 54.25L48.1263 52.1078L48.1708 50.8975L48.9453 47.8429L49.7332 45.8619L50.9119 43.4456L53.7867 39.8754L61.066 34.8214L63.19 32.5203L64.347 31.6248Z" fill="#FF5440"/>
<path opacity="0.8" d="M51.2667 115.199L33.8807 107.67L27.5235 99.9144L26.7286 90.8842L28.5505 86.6675L28.0513 92.9281L28.4911 95.9869L32.1887 100.018L34.0631 98.4033L39.2863 93.8202L42.5508 88.3212L45.1824 86.6632L50.3345 84.6217L60.1423 83.7241L67.0698 82.0117L73.4702 79.1174L79.8143 78.4101L85.9962 78.7342L90.8414 78.7707L94.2828 77.612L97.1063 77.2142L98.3788 78.3575L100.441 77.3336L102.535 76.9198L106.137 76.4193L113.258 78.3266L113.643 79.815L105.57 80.4404L101.846 80.8883L95.7063 81.4655L89.932 84.2642L84.8864 87.0789L80.2776 86.8482L74.2651 87.4817L70.5267 91.0178L65.5399 92.6813L59.3189 96.6106L52.4737 104.833L51.2414 107.682L51.1968 109.136L51.132 112.931L51.6466 114.332L51.2667 115.199Z" fill="#FF5440"/>
<path opacity="0.8" d="M54.9328 115.466L57.1345 110.383L61.6771 104.991L63.9735 102.745L67.7447 99.8193L69.0395 99.2057L70.776 99.9529L74.8175 99.794L79.9516 97.4537L81.4444 97.072L83.5508 97.9851L87.3857 98.9802L90.9991 97.0893L94.4852 94.4762L97.1694 92.6951L100.258 92.7094L104.947 92.7492L109.887 92.9061L115.389 91.7555L118.424 89.8333L122.298 87.6848L127.131 89.7777L129.621 93.2111L129.793 95.1963L130.527 97.5756L131.024 101.181L128.939 103.954L126.804 105.826L120.398 107.023L111.071 106.812L105.394 108.033L96.9517 108.493L89.1705 107.777L84.3915 109.972L78.9668 110.27L71.7263 111.697L67.5697 113.135L63.0251 114.108L58.5196 114.663L56.5784 116.763L54.9328 115.466Z" fill="#FF5440"/>
<path opacity="0.8" d="M56.2486 59.076L55.6144 59.3942L46.3016 64.0412L42.4376 68.5486L41.8962 69.7889L43.7559 70.5888L51.0428 69.4007L55.2743 68.8084L58.9805 68.0617L63.1309 67.6522L66.7178 66.8485L69.6284 65.9058L75.7436 66.0499L81.8427 66.9228L90.279 67.4914L97.8994 65.1975L103.732 64.6307L106.586 65.8668L111.254 66.126L117.979 63.0063L121.424 61.8432L123.157 62.5948L122.567 63.9621L121.537 64.9878L121.602 66.1916L124.36 67.9732L123.932 68.9668L123.557 69.8373L118.176 66.6216L115.145 66.488L113.386 67.4895L109.165 67.7234L105.337 67.3855L102.625 66.509L98.0868 66.4539L95.9339 68.0271L88.6651 68.848L84.8864 68.3915L81.964 68.0073L78.6679 67.4616L75.7072 67.5037L72.1424 66.9943L68.6745 69.4623L65.6048 69.7549L59.5781 70.0853L56.8134 69.3318L53.8143 69.8001L52.9007 69.732L50.6525 70.1818L48.7374 70.6892L46.0321 71.2961L43.2707 71.7551L40.3644 70.8106L38.1323 71.1442L36.7576 72.4009L35.2797 73.2624L36.1859 71.1729L38.8651 68.5454L41.6979 66.1039L45.2651 63.867L50.5837 61.2418L56.2486 59.076Z" fill="#FF5440"/>
<path opacity="0.25" d="M56.9884 58.9636L66.279 56.4641L70.6741 56.6942L74.1498 56.4455L78.9175 54.6544L81.4954 54.1596L84.622 55.8606L87.913 55.3913L91.0475 53.8072L96.1851 54.9073C96.1851 54.9073 98.3646 55.3629 98.7213 55.5174C99.0781 55.6719 103.631 54.6982 103.631 54.6982L109.515 56.3351L113.964 57.071L116.142 56.8895L117.894 56.7394L121.699 58.9493L123.22 60.9416L123.767 61.9494L120.964 62.9089L118.581 64.5361L115.874 65.1185L113.442 66.03L111.376 66.6061L108.698 66.6396L105.477 65.9363L103.163 65.7785L100.362 65.4758L98.0895 65.5451L96.7368 65.5423L94.8565 67.0214L91.7054 67.8257L89.3091 67.9411L83.448 67.396L79.5363 67.0315L75.8008 66.4361L72.5946 66.5497L70.6929 66.5711L68.4483 67.0699L65.0903 67.8566L62.3987 68.3146L58.692 68.3871L55.7594 68.9204L52.8003 69.431L50.2147 69.766L48.7609 69.9515L46.8075 70.4412L44.9264 70.6871L43.4611 70.7173L42.6924 70.3836L42.0298 70.0955L41.6918 69.8039L41.9058 69.3071L42.2503 68.5171L42.7284 68.0337L43.565 67.1168L44.7227 65.65L45.76 64.5004L46.5867 63.7281L47.3118 63.3046L51.3362 61.3012L52.0855 60.9827L53.4482 60.3434L54.1565 60.0814L54.8565 59.8201L55.9738 59.2524L56.9884 58.9636Z" fill="#FF5440"/>
<path opacity="0.25" d="M36.2977 71.8512L39.2924 70.3226L41.2722 70.6901L42.3403 71.458L43.9577 71.6508L48.8254 70.4895L51.1792 70.0771L52.7337 69.6415L53.8759 69.5776L56.9411 69.1127L57.7273 69.293L58.858 69.6863L64.4519 69.6181L68.4581 69.4823L69.5907 68.3997L71.5136 66.9956L72.4365 66.8575L75.3741 67.2241L79.4643 67.3904L84.5573 68.054L86.834 68.601L89.375 68.442L91.2116 68.5406L93.6209 68.2679L94.8919 67.8328L96.1961 67.6254L97.9214 66.0509L101.43 66.1287L103.466 66.1014L105.739 67.0886L107.346 67.2494L108.593 67.6669L111.321 67.4776L112.622 67.2746L113.282 67.2546L114.259 67.0098L114.989 66.5982L115.433 66.2159L116.625 66.3785L117.977 66.3115L119.034 66.7719L121.086 68.1741L122.493 68.7361L123.131 69.1946L123.417 69.5557L126.285 73.7751L126.479 75.7258L126.434 77.7311L127.077 80.4214L128.331 84.8711L128.717 88.1517L129.027 89.9499L129.585 91.8325L130.828 94.0221L131.674 97.1249L131.136 100.022L130.489 100.505L129.184 97.6954L128.897 95.32L127.638 93.0247L125.995 91.7608L123.473 90.5043L121.982 89.6402L120.759 89.5497L119.518 89.8881L118.315 90.5197L116.482 91.5883L114.825 91.9122L110.035 93.6762L107.991 92.886L102.844 92.7731L98.2827 93.2417L96.1702 93.9158L91.5505 96.7073L91.009 97.3352L88.5596 98.4L87.3761 99.0178L83.4962 98.1371L82.3758 97.6609L81.0445 97.2248L78.8448 98.2754L77.0264 99.2566L75.653 99.8637L74.5578 100.397L73.3209 100.18L71.5538 100.187L70.7605 100.077L69.8178 99.6702L69.0794 99.3013L68.5383 99.6003L67.8497 100.017L66.5661 100.893L64.0673 102.903L63.0675 103.947L61.6933 105.265L60.4771 106.72L58.9362 108.453L57.6837 110.084L55.1302 115.246L54.6989 115.64C54.6989 115.64 52.9693 115.098 52.8705 115.097C52.7718 115.096 51.5305 114.875 51.5305 114.875L51.1558 114.422L50.7457 112.989L50.9742 110.797L50.5585 109.566L50.4792 108.326L51.4183 106.349L53.3769 103.093L58.6247 96.7854L61.2731 94.3534L65.122 92.3671L67.403 91.6928L69.023 91.2524L70.2997 90.784L72.4761 88.9172L73.9939 87.3169L75.3737 87.0751L78.227 86.8026L80.7774 86.8813L83.3183 86.7757L84.5182 86.7692L84.9605 86.6913L87.3691 85.4075L91.3792 83.5449L92.5538 82.751L95.4989 81.2179L99.1641 80.9182L108.632 79.7046L109.666 78.0085L106.734 77.7771L103.016 77.3038L98.7221 78.3857L97.5426 78.9457L96.133 77.5617L89.9131 79.2259L81.6554 79.2936L73.4351 79.4778L70.7501 81.3041L68.3202 81.9112L59.2383 84.4529L55.8182 84.5659L51.0919 84.5247L49.4866 85.4984L44.9022 87.8228L43.0186 88.5334L42.027 90.1894L40.8747 92.5642L37.6422 96.2151L33.8505 100.088L31.5034 100.147L30.0414 98.4417L28.4253 96.7648L28.0363 95.6178L27.6734 92.4876L27.7049 90.3559L27.9469 87.6783L29.3635 83.3189L34.3685 76.0059L35.5349 73.0996L36.2977 71.8512Z" fill="#FF5440"/>
<defs>
<filter id="filter0_d_1_383" x="0" y="5.00037" width="185" height="185" filterUnits="userSpaceOnUse" color-interpolation-filters="sRGB">
<feFlood flood-opacity="0" result="BackgroundImageFix"/>
<feColorMatrix in="SourceAlpha" type="matrix" values="0 0 0 0 0 0 0 0 0 0 0 0 0 0 0 0 0 0 127 0" result="hardAlpha"/>
<feOffset dx="2" dy="2"/>
<feGaussianBlur stdDeviation="5"/>
<feComposite in2="hardAlpha" operator="out"/>
<feColorMatrix type="matrix" values="0 0 0 0 0 0 0 0 0 0 0 0 0 0 0 0 0 0 0.15 0"/>
<feBlend mode="normal" in2="BackgroundImageFix" result="effect1_dropShadow_1_383"/>
<feBlend mode="normal" in="SourceGraphic" in2="effect1_dropShadow_1_383" result="shape"/>
</filter>
</defs>
</svg>
