<svg width="185" height="185" viewBox="0 0 185 185" fill="none" xmlns="http://www.w3.org/2000/svg">
<g filter="url(#filter0_d_1_380)">
<rect x="8" y="8" width="165" height="165" rx="5" fill="white"/>
</g>
<path d="M129.353 123.992L128.165 140.948L126.005 140.876L126.545 132.956L120.749 133.172L121.289 140.876L119.129 140.948L117.941 124.028L120.101 123.848L120.605 131.012L126.689 130.796L127.193 123.812L129.353 123.992ZM104.441 126.728L115.169 126.044L115.205 127.556L112.109 132.488L115.529 142.964L113.369 143.612L110.525 135.008L106.925 140.804L105.269 139.688L112.505 128.204L104.621 128.816L104.441 126.728ZM108.833 118.592L112.541 123.38L110.813 124.676L107.105 119.888L108.833 118.592ZM144.041 132.704L144.113 140.696L155.021 140.264V142.424L131.729 143.288V141.128L141.953 140.768L141.881 132.704H144.041ZM145.589 121.364L142.637 126.26L151.385 131.624L150.233 133.496L141.485 128.204L137.345 135.044L135.437 133.964L143.717 120.32L145.589 121.364Z" fill="black"/>
<g clip-path="url(#clip0_1_380)">
<path opacity="0.6" d="M101.043 124.331L96.193 125.325L95.457 127.419L89.3298 131.203L81.7745 132.752C81.7745 132.752 78.98 134.298 77.6705 133.593C76.3611 132.888 72.0479 132.725 72.0479 132.725L68.982 129.151L62.0322 120.854L53.5471 111.703L47.9518 105.267L47.2637 101.909L44.8257 99.493L40.1482 97.5356L34.0355 92.3703L33.5766 90.1309L32.2983 88.6419C30.1662 87.7185 27.3566 86.348 27.3566 86.348L26.8592 83.9212L25.581 82.4322L24.7644 78.4478C24.7644 78.4478 25.8925 77.3142 26.0382 76.1193C26.1839 74.9244 26.2296 77.0532 26.1807 74.925C26.1318 72.7969 22.5228 67.5092 22.5228 67.5092C22.5228 67.5092 22.9249 65.6758 22.9978 65.0784C23.0706 64.4809 23.1402 63.8841 23.025 63.3218C22.9098 62.7595 19.1711 57.6937 19.1711 57.6937L19.9311 49.1772L22.3707 44.0103L27.4086 42.9779C27.4086 42.9779 30.1687 42.217 30.984 40.4942C31.7994 38.7715 32.2823 38.2853 32.9136 37.57C33.5448 36.8548 35.153 37.1111 35.153 37.1111L39.3934 35.9828C39.3934 35.9828 41.1521 34.1308 41.1832 32.3768C41.2144 30.6228 38.6907 34.4432 41.2105 30.6203C43.7302 26.7973 44.767 26.2043 44.767 26.2043L49.1002 26.4814C49.1002 26.4814 51.0136 28.2274 52.2086 28.3731C53.4035 28.5189 54.75 28.4349 55.2706 28.1329C55.7913 27.8309 56.5344 26.7088 56.5344 26.7088L57.683 24.7225C57.683 24.7225 58.8395 24.6808 59.4396 24.7498C60.0396 24.8187 62.4639 24.3253 62.4639 24.3253L67.259 23.5379L70.144 21.0038L73.2868 22.1107L72.8847 23.944C75.3877 23.8183 76.6171 23.1792 77.4019 23.2136C78.1868 23.2481 80.2766 23.0117 80.2766 23.0117C80.2766 23.0117 82.4087 23.9352 82.1516 24.5704C81.8946 25.2056 82.4848 24.3068 81.8946 25.2056C81.3043 26.1044 81.1825 24.5737 81.3011 26.105C81.4196 27.6364 82.1934 28.0603 83.006 28.4763C83.8185 28.8923 86.9958 29.2143 86.9958 29.2143C86.9958 29.2143 89.1663 30.3252 88.3118 30.8875L87.4541 31.4505C87.4541 31.4505 88.7737 34.2914 89.3762 34.7504C89.9787 35.2095 93.6077 36.7993 93.6077 36.7993L94.564 41.4656C94.564 41.4656 95.276 42.0975 95.88 43.1387C96.4808 44.1807 98.3253 46.5267 98.3253 46.5267C98.5584 48.6172 97.9265 49.3292 98.0417 49.8915C98.1569 50.4537 101.046 53.1649 101.724 54.5817L102.401 55.9985C102.401 55.9985 104.304 55.8038 104.089 57.5955L106.657 63.4872L108.301 71.511L112.174 77.1351L118.522 108.109L117.356 110.964L116.825 113.124L115.83 115.856L113.969 117.211L109.356 121.268L105.366 122.668L101.04 124.332L101.043 124.331Z" fill="#76AC53"/>
<path d="M107.962 116.799L110.632 113.709C110.632 113.709 112.009 112.986 112.07 112.051C112.131 111.116 113.88 106.343 113.88 106.343C113.88 106.343 113.977 103.367 113.745 101C113.512 98.6332 112.884 99.9068 113.045 97.5842C113.205 95.2616 112.193 93.1826 111.465 89.648C110.738 86.1135 110.949 87.471 110.584 85.1315C110.219 82.792 110.941 84.314 110.219 82.792C109.496 81.27 110.923 81.6274 109.589 78.85C108.256 76.0726 108.306 76.3182 107.443 74.5892C106.581 72.8602 103.493 68.4589 102.276 66.6947L101.06 64.9304L97.5271 59.8022C96.9421 58.9523 96.5611 59.7712 96.5884 58.4422C96.6158 57.1133 94.7633 58.9678 94.4316 55.3116C94.0999 51.6555 93.3213 51.3066 93.5244 50.8845C93.7274 50.4624 89.9258 39.4697 89.9258 39.4697L82.4063 36.1316C82.4063 36.1316 81.5202 34.5353 80.9212 34.2742C80.3222 34.0131 75.8672 31.4982 75.8672 31.4982C75.8672 31.4982 76.4724 30.7378 75.4924 29.6692C74.5124 28.6006 73.9993 28.5778 73.4057 27.5546C72.8122 26.5314 73.744 26.7243 71.2042 26.7363C68.6645 26.7483 64.761 27.0398 64.761 27.0398C64.761 27.0398 63.2946 27.2124 62.221 27.5603C61.1475 27.9083 54.3966 30.3087 54.3966 30.3087C54.3966 30.3087 54.129 30.2355 53.0327 31.0966C51.9363 31.9577 50.7929 32.5725 50.7929 32.5725C50.7929 32.5725 49.7942 33.2856 48.6256 33.7777C47.457 34.2697 47.3269 33.0269 44.7991 35.5787C42.2714 38.1305 38.435 42.3479 38.435 42.3479C38.435 42.3479 35.6398 44.8266 34.7639 45.5145C33.888 46.2025 32.96 46.0121 32.2338 47.4304C31.5075 48.8487 29.3701 51.4484 29.3701 51.4484C29.3701 51.4484 28.521 52.8919 28.5518 53.6499C28.5826 54.408 28.489 55.8245 28.4466 56.8501C28.4043 57.8757 28.4987 57.7284 28.266 59.6819C28.0333 61.6354 27.3045 63.0576 27.3045 63.0576L28.5844 65.5901C28.5844 65.5901 27.4044 65.7141 27.2061 66.0611C27.0079 66.4081 26.0842 68.9006 26.0842 68.9006L27.659 76.5851C27.8338 77.4382 27.5362 76.6103 27.8338 77.4382C28.1315 78.2662 30.0519 84.4824 30.7948 85.3471C31.5376 86.2117 30.5342 85.653 31.5376 86.2117C32.5411 86.7705 33.9391 88.0059 34.2815 88.4442C34.6238 88.8825 37.4146 91.3276 37.4146 91.3276C39.9455 93.1289 44.5752 97.4162 44.5752 97.4162C44.5752 97.4162 43.5672 99.1851 44.8154 99.5085L46.0668 99.8312L51.5207 103.721L52.2834 104.962L53.3439 107.031C53.3439 107.031 55.6477 108.973 55.9681 109.288C56.2886 109.602 60.9066 115.394 62.0266 115.289C63.1465 115.184 71.399 119.47 75.2187 121.99L79.0385 124.511L87.767 123.611L98.4387 119.77L106.382 118.015L107.959 116.803L107.962 116.799Z" fill="#BCCE55"/>
<path opacity="0.8" d="M41.7909 44.4449L39.9391 45.3329L36.7462 46.4956L35.9954 47.7943C35.9954 47.7943 38.7604 48.881 38.2496 49.4941C37.7389 50.1073 36.7002 52.4819 36.3595 52.6763C36.0188 52.8707 35.5641 55.6138 35.5641 55.6138L31.6605 56.4138C31.6605 56.4138 31.9627 57.2644 32.0644 58.385C32.1661 59.5057 31.5461 62.0504 32.5536 63.8777C33.5612 65.705 34.9078 66.0655 33.9564 66.385C33.005 66.7046 31.4994 68.0334 31.4994 68.0334L31.8491 69.7396C31.9743 70.3504 33.7398 72.1469 33.9381 72.4901C34.1364 72.8334 35.4564 73.7043 35.4564 73.7043L35.0009 75.1951C35.0009 75.1951 34.1501 76.0058 35.1333 77.0738C36.1166 78.1417 36.9972 78.7256 37.1948 79.0656C37.3925 79.4056 37.712 80.357 37.7428 81.115C37.7735 81.8731 36.7537 83.732 37.8296 84.02C38.9056 84.3079 43.0961 87.3888 43.2212 87.9996C43.3464 88.6103 43.2285 89.2675 43.2285 89.2675C43.2285 89.2675 43.1978 89.7418 43.3269 90.372C43.456 91.0021 44.2025 91.5394 44.575 91.5001C44.9474 91.4608 46.9382 94.3561 46.9382 94.3561L46.5569 95.5353L50.1469 99.5474C50.9845 100.595 52.3426 102.293 52.5502 102.55C52.7578 102.807 51.7383 101.989 52.9613 103.291C54.1843 104.592 56.4373 107.404 56.4373 107.404C56.4373 107.404 57.7535 109.932 57.9763 110.395C58.1991 110.858 61.6332 114.602 62.0285 115.282C62.4237 115.962 63.0366 117.096 63.7825 117.647C64.5284 118.197 67.7294 120.787 68.654 120.945C69.5785 121.102 75.2525 123.371 75.5931 123.176C75.9338 122.982 82.0617 122.487 83.032 121.652C84.0023 120.816 98.7588 117.159 98.7588 117.159C98.7588 117.159 102.322 116.557 102.662 116.359C103.002 116.162 105.063 113.645 105.442 113.409C105.821 113.173 105.19 113.808 105.821 113.17C106.451 112.532 107.663 110.378 107.663 110.378C107.663 110.378 108.849 108.101 108.7 107.371L108.375 105.784C108.375 105.784 108.061 101.148 107.911 100.414L107.436 98.0973C107.436 98.0973 105.668 95.6648 105.368 94.201C105.068 92.7371 105.829 93.3455 104.843 91.6384C103.856 89.9313 103.634 89.4717 103.214 88.6689C102.793 87.8662 102.503 88.3062 102.034 86.6244C101.565 84.9427 101.936 86.7724 101.561 84.9434C101.187 83.1143 101.269 84.7507 101.061 82.5036L100.854 80.2597C100.854 80.2597 99.9986 79.7986 99.9238 79.4335C99.849 79.0683 99.0752 77.9541 99.0752 77.9541C99.0752 77.9541 97.0468 75.3191 96.5516 74.1511C96.0563 72.9832 94.8488 70.18 94.8488 70.18L94.0399 65.6081C94.0399 65.6081 93.3413 65.9129 92.9957 65.4752C92.6502 65.0376 90.6895 62.8972 89.456 60.6077C88.2257 58.3176 87.3898 57.3441 87.3898 57.3441C87.3898 57.3441 87.5395 58.0744 86.479 56.0054L85.4186 53.9363L84.4886 51.2547C84.4886 51.2547 85.2865 48.4446 84.6755 47.5495C84.0644 46.6545 83.0611 45.1765 82.4097 44.2156L81.2624 42.5281C80.2878 41.0913 80.0716 39.0177 80.0716 39.0177L76.8822 35.8596C76.8822 35.8596 72.8689 34.2678 72.4289 33.9774L71.9889 33.6871L69.3173 33.5982L68.3253 33.8015C68.3253 33.8015 67.3018 33.3749 66.0784 33.501C64.855 33.6271 61.771 33.8753 61.771 33.8753L60.2683 34.1832C60.2683 34.1832 50.3376 35.3294 49.8017 35.8197C49.2658 36.31 48.8778 36.898 48.3206 37.2681C47.7634 37.6381 41.7858 44.4527 41.7858 44.4527L41.7909 44.4449Z" fill="#F5E692"/>
<path opacity="0.8" d="M49.6128 56.5701L48.2066 58.3836C48.2066 58.3836 49.4345 60.0378 49.5093 60.403C49.5842 60.7681 50.6386 63.3502 50.6386 63.3502L50.8638 64.4489C50.8638 64.4489 51.6255 66.835 51.4637 67.3766C51.302 67.9182 51.8027 68.324 52.0637 70.3043C52.3248 72.2846 52.8385 74.0852 52.8385 74.0852L55.2706 79.0518L53.8625 79.805L56.5447 85.2692C56.5447 85.2692 57.225 87.7999 57.1447 88.1969C57.0644 88.5938 55.9708 87.168 57.6125 90.1348C59.2543 93.1016 60.0478 95.1007 60.4934 96.0263C60.939 96.9519 62.2417 98.9712 63.0297 100.335C63.8176 101.699 64.6781 102.792 64.6781 102.792C64.6781 102.792 65.9069 103.81 66.2861 104.116C66.6654 104.422 67.8909 105.44 67.8909 105.44C67.8909 105.44 69.484 107.02 69.3165 107.434C69.149 107.849 70.0236 110.721 70.0236 110.721C70.0236 110.721 71.661 114.537 72.5558 114.566C73.4506 114.594 74.1492 115.522 74.1492 115.522L75.1581 118.046C75.1581 118.046 76.7079 118.692 77.0688 119.22C77.4297 119.749 77.7501 120.064 78.2381 119.964C78.7261 119.864 85.6672 119.509 85.6672 119.509C87.1237 119.288 94.3666 118.056 94.3666 118.056L98.1672 114.897C98.1672 114.897 101.479 114.312 102.817 113.402C104.156 112.491 104.667 111.878 104.667 111.878C104.667 111.878 104.907 111.701 104.786 110.341C104.666 108.982 103.342 105.415 103.045 104.587C102.747 103.759 102.705 104.784 102.207 102.98C101.71 101.177 101.244 100.763 101.117 99.5168C100.99 98.2734 102.545 100.046 101.246 94.7561C99.9462 89.4666 99.4079 89.321 99.573 88.2702C99.7382 87.2195 98.7307 85.3921 98.7307 85.3921C98.7307 85.3921 98.0632 84.7309 97.3296 83.5175C96.5961 82.3041 96.785 82.454 95.9808 80.649C95.1765 78.844 94.0983 76.4251 93.6288 75.3663C93.1593 74.3076 92.0014 75.4271 92.2269 72.2224C92.4517 69.0146 92.3289 69.0397 91.962 68.4819C91.5952 67.924 90.121 66.3169 90.121 66.3169C90.121 66.3169 88.5905 65.8157 88.0163 64.903C87.442 63.9903 82.4604 62.4218 82.1399 62.107C81.8195 61.7922 81.5772 61.8418 81.0868 61.3059C80.5965 60.77 76.5912 60.4493 76.2432 59.3758C75.8953 58.3023 75.8456 58.0599 75.526 57.1085C75.2065 56.1571 74.328 54.8117 73.5011 53.9643C72.6742 53.1169 69.9897 53.0306 68.9089 52.1106L67.8306 51.1867C67.8306 51.1867 67.3678 51.4095 66.4627 50.7061C65.5575 50.0026 66.5878 51.3168 65.5575 50.0026L64.5272 48.6884L60.2316 48.8078L51.8167 50.5322C51.8167 50.5322 50.7912 50.4899 50.6985 51.2698L50.5105 52.8337C50.5105 52.8337 51.0333 54.7604 49.6238 56.5745L49.6128 56.5701Z" fill="#F5E692"/>
<path opacity="0.4" d="M67.3155 87.7625L66.9903 86.1758C66.9406 85.9334 68.0271 85.0407 68.0271 85.0407C68.0271 85.0407 67.3206 84.0743 67.0978 83.6115C66.8751 83.1487 66.4123 83.3715 66.2374 82.5184C66.0626 81.6653 65.5243 81.5197 65.1071 80.7163C64.6899 79.9128 65.3316 81.8117 64.3437 79.4719C63.3557 77.1322 63.4809 77.7429 62.9889 76.5743C62.4969 75.4057 62.4986 76.0384 61.8334 74.6494C61.1683 73.2603 61.8106 75.1625 61.1683 73.2603C60.5259 71.3582 58.8764 73.8579 60.5259 71.3582L62.1754 68.8584C62.1754 68.8584 62.6885 68.8812 62.4137 67.5401C62.1388 66.1991 62.3812 66.1494 61.5485 65.1752C60.7158 64.201 59.5367 63.4257 59.5367 63.4257C58.6008 61.9642 58.7967 61.6715 58.6692 60.4249L58.5423 59.1814L59.6354 58.321L62.2885 57.7773L64.907 58.0017C66.4733 58.8256 68.1616 59.6211 68.1616 59.6211L70.0483 60.7598L72.9784 60.7957L73.9835 61.9871C73.9835 61.9871 72.9652 63.2127 73.6979 63.6989C74.4306 64.1852 78.3992 66.1667 78.3992 66.1667L79.5053 67.2263L79.7768 68.5512C79.7768 68.5512 81.9886 71.2766 82.183 71.6172C82.3774 71.9579 83.1881 72.8086 83.1881 72.8086C83.1881 72.8086 83.8509 73.5617 84.6365 74.2897C85.4221 75.0176 88.2642 77.1054 88.2642 77.1054L88.6139 78.8116L90.3871 80.4484C90.3871 80.4484 90.6617 82.84 91.0434 83.6508C91.425 84.4615 92.9757 87.0664 92.9757 87.0664C93.9637 89.4062 94.4865 91.3329 94.4865 91.3329L95.8109 97.7959C96.3029 98.9645 97.4657 102.157 97.4657 102.157L98.2405 105.938L97.2915 106.894L95.1117 110.519C95.1117 110.519 94.9693 111.057 94.1381 111.355C93.307 111.653 91.7113 111.852 91.7113 111.852L90.0149 111.691L88.2242 109.772L86.2034 106.944C86.2034 106.944 86.2286 108.019 84.8375 107.163C83.4464 106.307 82.3265 106.017 82.3265 106.017C82.3265 106.017 79.8777 105.028 78.9697 104.934C78.0616 104.841 77.8142 103.009 77.8142 103.009L77.3662 101.448L67.3161 87.7489L67.3155 87.7625Z" fill="#FEFDEE"/>
<path d="M85.6677 119.512L78.3503 112.263C78.3503 112.263 65.2317 94.7318 65.1171 94.1728C65.0026 93.6137 54.9733 74.0853 54.9733 74.0853L55.2664 65.0819L56.4803 71.9581L66.0783 92.2249L70.59 98.1054L86.1947 115.905L75.0104 100.698L69.3618 89.0232L69.2695 84.9577L77.9195 99.7113L84.7027 108.625L89.1836 116.737L91.7946 116.202L86.206 106.956L83.3611 102.095L81.7936 94.4457L81.9418 89.9437L84.0027 99.0472L85.3266 102.665L87.9632 106.987L92.9995 113.538L96.0199 112.141L92.362 104.725L87.2952 99.9315L86.4814 94.0709L86.4213 89.0291L88.4717 96.1918L89.9407 98.6115L93.8789 101.694L95.6194 106.391L93.0716 96.8014L87.2216 84.3901L79.2922 74.1557L67.6161 61.7732L80.9277 72.6555L88.5582 82.3686L92.6711 91.0515L98.5012 107.161L98.8295 113.511L100.821 108.049L99.7706 99.1258L91.029 75.4477L81.6156 59.8774L73.7136 47.8866L66.9585 41.4926L77.1472 47.5701L91.2983 70.1397L95.9813 80.652L104.073 102.325L104.79 110.344L106.725 100.809L102.213 78.7891L90.8819 60.5005L79.8226 44.4897L73.508 36.4499L80.2903 41.0873L85.8584 49.2801L96.1811 63.8155L100.821 71.9965L104.803 81.9487L111.215 102.801L110.022 111.211L113.885 106.335L110.223 82.7809L103.355 68.2446L94.4354 55.2973L89.144 40.6332L80.9271 32.7913L91.4182 40.5578L97.8877 56.7313L104.88 66.188L108.35 73.6422L111.668 80.35L118.522 108.112L115.267 114.968L106.55 120.772L101.337 123.15L96.134 124.216L93.653 127.62L89.1386 130.32L80.5493 132.08L72.3842 129.174L49.7442 105.782L44.5693 97.4038L41.0366 94.2959L29.7319 77.433L26.4585 64.204L31.6126 77.0476L41.377 90.502L48.2636 97.2091L56.4269 107.402L64.309 115.319L44.9006 88.5542L41.5343 82.6107L36.0936 71.1121L33.1152 56.1189L38.7514 71.315L44.588 82.921L49.6451 89.3598L59.3837 102.688L66.9338 112.633L71.1161 116.167L75.1457 118.052L62.0094 100.467L57.2286 91.7285L51.3936 80.5902L43.985 66.7843L42.439 54.6728L46.1064 67.0971L53.8495 79.8075L61.4149 92.5542L67.943 102.523L76.6379 114.85L81.7782 119.871L85.6555 119.518L85.6677 119.512Z" fill="#FEFDEE"/>
<path opacity="0.8" d="M68.5501 66.9223L66.3367 70.6791L68.143 72.2148L66.9367 73.6069L69.0682 76.7292L71.3997 80.8274L71.9494 83.5096C71.9494 83.5096 73.1117 84.4162 73.3061 84.7569C73.5005 85.0975 73.706 86.7087 73.706 86.7087C73.706 86.7087 75.5495 89.5096 75.6243 89.8747L76.4991 94.1435L78.2402 95.8205L79.4761 98.7459L80.9788 101.741L82.8141 107.591L85.4168 112.142L85.8168 114.094L87.9208 117L91.0791 120.006L94.3679 118.062C94.3679 118.062 96.3174 117.027 96.2426 116.661C96.1677 116.296 95.3318 115.323 95.8426 114.71C96.3533 114.096 95.2105 113.465 96.0174 112.145C96.8243 110.825 96.07 108.097 95.6169 106.395C95.1637 104.693 94.9596 104.617 94.4177 103.156C93.8757 101.694 92.5878 102.541 92.1698 102.374C91.7517 102.207 90.0911 101.53 89.9911 101.042C89.8911 100.555 89.9382 98.6155 89.9382 98.6155C89.9382 98.6155 91.0494 98.1554 90.507 96.7412C89.9647 95.327 89.915 95.0847 89.4214 94.5494C88.9279 94.0141 89.1358 96.2612 87.7227 91.8468C86.3097 87.4324 86.6552 87.8701 85.82 86.8997C84.9847 85.9294 86.1372 87.2152 84.9841 85.9262C83.831 84.6372 83.4275 87.0062 82.5071 83.7636C81.5899 80.5204 82.0048 80.6879 81.3168 79.812C80.6289 78.9361 79.1493 79.6198 78.5184 78.4796L77.8874 77.3395C77.8874 77.3395 78.2925 75.6032 75.7691 73.1976C73.2457 70.792 73.8556 71.3034 72.2894 70.4795C70.7232 69.6556 70.2898 69.3976 69.9906 69.1862C69.6913 68.9748 69.1004 69.6077 68.825 68.2634L68.5501 66.9223V66.9223Z" fill="#F7DE77"/>
</g>
<defs>
<filter id="filter0_d_1_380" x="0" y="0" width="185" height="185" filterUnits="userSpaceOnUse" color-interpolation-filters="sRGB">
<feFlood flood-opacity="0" result="BackgroundImageFix"/>
<feColorMatrix in="SourceAlpha" type="matrix" values="0 0 0 0 0 0 0 0 0 0 0 0 0 0 0 0 0 0 127 0" result="hardAlpha"/>
<feOffset dx="2" dy="2"/>
<feGaussianBlur stdDeviation="5"/>
<feComposite in2="hardAlpha" operator="out"/>
<feColorMatrix type="matrix" values="0 0 0 0 0 0 0 0 0 0 0 0 0 0 0 0 0 0 0.15 0"/>
<feBlend mode="normal" in2="BackgroundImageFix" result="effect1_dropShadow_1_380"/>
<feBlend mode="normal" in="SourceGraphic" in2="effect1_dropShadow_1_380" result="shape"/>
</filter>
<clipPath id="clip0_1_380">
<rect width="87.2163" height="112.23" fill="white" transform="matrix(-0.979641 0.200759 0.200759 0.979641 99.4407 15)"/>
</clipPath>
</defs>
</svg>
